<?xml version="1.0" encoding="UTF-8"?>
<svg id="uuid-1b623e2f-6356-4687-b34e-cc779d14450e" data-name="Layer 1" xmlns="http://www.w3.org/2000/svg" viewBox="0 0 4000 3000">
  <defs>
    <style>
      .uuid-e4c58264-c8f3-4f12-9c0a-3b2428873601 {
        fill: #fefefe;
      }

      .uuid-e4c58264-c8f3-4f12-9c0a-3b2428873601, .uuid-44745677-9949-4eee-8d97-229ce2dc8085, .uuid-0541b8cf-08a2-4984-8b69-8c31f8474e93, .uuid-bc81ff93-72df-483a-ac49-c57aa37750a4, .uuid-324e8a63-7b2a-40b5-b619-3d0c9a580be8, .uuid-b98e7953-95e0-45c2-8a7a-6b615de93188, .uuid-7202449b-b5a3-44ec-8742-df3d3843a83c, .uuid-3b5f1fe3-4ac2-495b-bbb9-2c877ac87cf5, .uuid-8585f976-54de-4b08-b516-4889f091fbf9, .uuid-7e7990dd-7467-4700-9b6d-81967984ac25, .uuid-218d4d90-1567-4714-ae08-d22379a7dd65, .uuid-82eae13d-9412-4a32-9f99-890f6413516b, .uuid-17e0081b-d48c-4e43-a6f4-42d091e945d4, .uuid-1845e945-20f5-4b69-aa54-476dce5bd23c, .uuid-eacaefde-2c6e-40fd-9f15-bd827bd24c9a {
        stroke-width: 0px;
      }

      .uuid-44745677-9949-4eee-8d97-229ce2dc8085 {
        fill: #5551e3;
      }

      .uuid-0541b8cf-08a2-4984-8b69-8c31f8474e93 {
        fill: #e9e7fd;
      }

      .uuid-324e8a63-7b2a-40b5-b619-3d0c9a580be8 {
        fill: #fff;
      }

      .uuid-363737de-3356-4fdb-8ee5-5c72b43248de {
        stroke: #fff;
      }

      .uuid-363737de-3356-4fdb-8ee5-5c72b43248de, .uuid-de43640b-1d6f-41fd-a7af-c2f2afb38491 {
        fill: none;
        stroke-miterlimit: 10;
        stroke-width: 10px;
      }

      .uuid-b98e7953-95e0-45c2-8a7a-6b615de93188 {
        fill: #ffc596;
      }

      .uuid-7202449b-b5a3-44ec-8742-df3d3843a83c {
        fill: #2b2d77;
      }

      .uuid-3b5f1fe3-4ac2-495b-bbb9-2c877ac87cf5 {
        fill: #3d3dc4;
      }

      .uuid-8585f976-54de-4b08-b516-4889f091fbf9 {
        fill: #4341b9;
      }

      .uuid-7e7990dd-7467-4700-9b6d-81967984ac25 {
        fill: #01cdff;
      }

      .uuid-218d4d90-1567-4714-ae08-d22379a7dd65 {
        fill: #153b63;
      }

      .uuid-82eae13d-9412-4a32-9f99-890f6413516b {
        fill: #3483ff;
      }

      .uuid-17e0081b-d48c-4e43-a6f4-42d091e945d4 {
        fill: #d7d4fe;
      }

      .uuid-1845e945-20f5-4b69-aa54-476dce5bd23c {
        fill: #8f6cfe;
      }

      .uuid-de43640b-1d6f-41fd-a7af-c2f2afb38491 {
        stroke: #d7d4fe;
      }

      .uuid-eacaefde-2c6e-40fd-9f15-bd827bd24c9a {
        fill: #f9a985;
      }
    </style>
  </defs>
  <rect class="uuid-324e8a63-7b2a-40b5-b619-3d0c9a580be8" width="4000" height="3000"/>
  <g>
    <g>
      <path class="uuid-0541b8cf-08a2-4984-8b69-8c31f8474e93" d="m855.23,1276.29c807.84-117.61,1262.18-275.72,1352.25-699.25,17.74-95.5,42.45-265.57-56.14-280.67-98.58-15.1-330.44,365.74-510.28,530.84-319.31,340.07-1126.95,450.45-785.83,449.08Z"/>
      <path class="uuid-0541b8cf-08a2-4984-8b69-8c31f8474e93" d="m3664.74,2592.56H319.56s-14.75-48.2-29.93-124.54c-.66-3.33-1.33-6.72-1.98-10.14-5.51-28.55-10.99-60.67-15.76-95.43-6.47-47.11-11.63-99.04-13.8-153.42-1.25-31.61-1.49-64.06-.38-96.86.1-3.44.23-6.89.39-10.36,13.79-325.35,163.12-680.97,771.86-613.15,1085.22,120.89,1557.17-1325.82,2190.46-1029.99,633.29,295.83,561.79,1254.22,444.32,2133.9Z"/>
      <circle class="uuid-0541b8cf-08a2-4984-8b69-8c31f8474e93" cx="650.66" cy="1270.88" r="49.36" transform="translate(-149.62 88.49) rotate(-6.98)"/>
    </g>
    <circle class="uuid-324e8a63-7b2a-40b5-b619-3d0c9a580be8" cx="3303.79" cy="994.25" r="31.5"/>
    <circle class="uuid-324e8a63-7b2a-40b5-b619-3d0c9a580be8" cx="3243.41" cy="1057.25" r="13.83" transform="translate(202.39 2603.1) rotate(-45)"/>
    <circle class="uuid-324e8a63-7b2a-40b5-b619-3d0c9a580be8" cx="3400.22" cy="1598.45" r="21.25" transform="translate(-255.53 731.25) rotate(-11.83)"/>
    <circle class="uuid-324e8a63-7b2a-40b5-b619-3d0c9a580be8" cx="3560.54" cy="1663.8" r="21.25" transform="translate(-200.39 523.15) rotate(-8.17)"/>
    <circle class="uuid-324e8a63-7b2a-40b5-b619-3d0c9a580be8" cx="2433.2" cy="1403.77" r="21.25" transform="translate(-222.41 2319.62) rotate(-49.01)"/>
    <path class="uuid-324e8a63-7b2a-40b5-b619-3d0c9a580be8" d="m3479.89,1563.36c-3.67,3.21-9.24,2.84-12.45-.83-3.21-3.67-2.84-9.24.83-12.45,3.67-3.21,9.24-2.84,12.45.83s2.84,9.24-.83,12.45Z"/>
    <path class="uuid-324e8a63-7b2a-40b5-b619-3d0c9a580be8" d="m2334.99,1344.66c-1.33,4.69-6.2,7.41-10.89,6.09-4.69-1.33-7.41-6.2-6.09-10.89,1.33-4.69,6.2-7.41,10.89-6.09,4.69,1.33,7.41,6.2,6.09,10.89Z"/>
    <circle class="uuid-324e8a63-7b2a-40b5-b619-3d0c9a580be8" cx="2563.28" cy="1167.13" r="8.82"/>
    <g>
      <path class="uuid-324e8a63-7b2a-40b5-b619-3d0c9a580be8" d="m350.28,2324.89c-16.78,27.89-48.07,41.68-78.39,37.55-6.47-47.11-11.63-99.04-13.8-153.42,21.03-6.84,44.82-4.87,65.26,7.44,37.38,22.5,49.45,71.05,26.94,108.43Z"/>
      <path class="uuid-324e8a63-7b2a-40b5-b619-3d0c9a580be8" d="m377.54,2126.45c-37.26-22.43-79.37-30.08-119.44-24.65-.15,3.46-.29,6.91-.39,10.36,8.31-1.22,16.73-1.83,25.18-1.83,30.5,0,61.39,8.02,89.38,24.87,82.12,49.44,108.72,156.48,59.27,238.61-31.61,52.5-86.76,82.32-143.89,84.06.65,3.42,1.32,6.81,1.98,10.14,59.89-2.38,117.51-33.87,150.66-88.94,52.35-86.95,24.19-200.28-62.76-252.63Z"/>
    </g>
    <g>
      <circle class="uuid-324e8a63-7b2a-40b5-b619-3d0c9a580be8" cx="2454.4" cy="1243.01" r="15.07" transform="translate(834.29 3466.61) rotate(-80.78)"/>
      <circle class="uuid-363737de-3356-4fdb-8ee5-5c72b43248de" cx="2454.4" cy="1243.01" r="61.23" transform="translate(-160.07 2099.59) rotate(-45)"/>
    </g>
    <g>
      <circle class="uuid-324e8a63-7b2a-40b5-b619-3d0c9a580be8" cx="3370.77" cy="1821.33" r="56.44"/>
      <circle class="uuid-363737de-3356-4fdb-8ee5-5c72b43248de" cx="3370.77" cy="1821.33" r="114.38" transform="translate(-300.6 2916.95) rotate(-45)"/>
    </g>
    <circle class="uuid-324e8a63-7b2a-40b5-b619-3d0c9a580be8" cx="3211.92" cy="750.71" r="91.87"/>
    <g>
      <path class="uuid-de43640b-1d6f-41fd-a7af-c2f2afb38491" d="m871.97,1269.08c801.66-154.21,1248.34-332.82,1319.06-760,13.38-96.2,30.33-267.23-68.84-277.83-99.17-10.6-313.47,380.39-485.62,553.48-303.52,354.23-1105.31,501.21-764.61,484.34Z"/>
      <path class="uuid-de43640b-1d6f-41fd-a7af-c2f2afb38491" d="m3220.42,380.99c-633.29-295.83-1105.24,1150.88-2190.45,1029.99C-55.25,1290.09,319.56,2514.9,319.56,2514.9h3345.19c117.46-879.68,188.96-1838.08-444.32-2133.91Z"/>
      <circle class="uuid-de43640b-1d6f-41fd-a7af-c2f2afb38491" cx="667.37" cy="1272.98" r="49.36"/>
    </g>
  </g>
  <g>
    <path class="uuid-218d4d90-1567-4714-ae08-d22379a7dd65" d="m2692.76,1351.34s-25.74,52.15-22.34,105.24c3.4,53.1-25.63,78.17-25.63,78.17l-49.88,53.36c-19.74,31.55-3.9,107.14,12.29,119.65,38.86,30.02,249.54,43.62,343.79,7.16,34.63-13.4-1.22-79.22-11.1-107,0,0,19.39-81.07,7.31-110.98-54.21-88.76,5.17-261-105.5-212.7-86.95-35.34-191.66,42.79-171.84,99.99,0,0,3.97-16.83,22.9-32.89Z"/>
    <polygon class="uuid-b98e7953-95e0-45c2-8a7a-6b615de93188" points="2816.16 1493.92 2804.52 1536.88 2821.7 1608.92 2715.74 1608.92 2729.02 1536.88 2730.71 1513.64 2827.06 1456.59 2816.16 1493.92"/>
    <path class="uuid-eacaefde-2c6e-40fd-9f15-bd827bd24c9a" d="m2827.06,1456.59l-10.9,37.33c-32.32,50.66-87.14,42.97-87.14,42.97l1.69-23.24,96.35-57.05Z"/>
    <path class="uuid-b98e7953-95e0-45c2-8a7a-6b615de93188" d="m2836.88,1403.17c-.04,12.07,7.25,6.63,14.41,13.41,6.16,7.65-1.67,30.06-15.99,36.79-8.24,14.49-19.07,26.21-29,33.1-39.91,27.72-88.33,47.71-100.3-1.97-33.8-56.59,9.37-87.54-4.23-127.51,39.28-13.96,79.32-11.36,120.07,6.64,0,0,15.1,20.32,15.03,39.54Z"/>
    <path class="uuid-b98e7953-95e0-45c2-8a7a-6b615de93188" d="m2649.18,1704.13s-45.05,78.5-67.91,80.62c-44.61,4.13-124.8-225.24-124.8-225.24l-42.32-12.86-7.48-2.27-27.83-8.45c-1.94-.43-3.58-1.51-4.76-2.96-1.17-1.46-1.86-3.31-1.86-5.29,0-4.65,3.78-8.43,8.45-8.43l11.09-.28,7.54-.19,34.17-.88c-9-3-19.22-5.07-20.69-5.07,0,0-5.64-7.89,13.52-6.19,19.14,1.69,38.45,4.25,43.17,16.76h0c2.32,1.9,4.33,4.21,5.92,6.87l100.79,168.29,73.83-128.52-.86,134.1Z"/>
    <path class="uuid-44745677-9949-4eee-8d97-229ce2dc8085" d="m2928.01,1892.97h-286.74c1.57-4.87,3.17-9.37,4.78-13.46,4.92-11.82,9.87-24.95,13.58-39.19,2.25-8.57,4.06-17.55,5.15-26.88.25-2.11.46-4.25.62-6.4.22-2.78.39-5.59.47-8.43.73-23.56-3.54-49.14-16.65-76.13-.7-1.68-1.47-3.6-2.29-5.71-.65-1.7-1.33-3.53-2.02-5.5-2.63-7.44-5.43-16.71-7.67-27.35-3.02-14.41-5-31.33-4.06-49.55.77-14.65,3.43-30.15,8.99-45.88.8-2.26,1.65-4.52,2.57-6.8,1.57-3.88,3.33-7.76,5.28-11.65,6.06-5.41,15.69-6.75,26.36-7.84,2.12-.21,4.3-.42,6.5-.65,4.16-.44,8.39-.95,12.56-1.74,13.31-2.52,25.99-7.91,33.55-22.9h.01c14.97,7.83,30.54,13.52,75.49,0,.22,1.98.67,3.79,1.31,5.45,5.35,14.04,24.34,17.41,41.98,19.86,11.56,1.61,22.55,2.83,28.74,6.4,1.41.82,2.56,1.75,3.42,2.83,3.91,1.42,6.24,5.66,7.51,12.25.57,2.98.92,6.45,1.09,10.35.76,16.34-1.53,40.35-3.39,68.69-.67,10.34-3.98,22.03-8.25,34.44-5.55,16.13-12.72,33.44-17.85,50.52-5.1,16.94-8.17,33.63-5.66,48.67.97,5.83,3.86,11.45,8,17.08.49.66,1,1.34,1.52,2,15.34,19.55,44.72,39.5,59.83,69.13,1.79,2.71,3.53,5.51,5.25,8.41Z"/>
    <path class="uuid-8585f976-54de-4b08-b516-4889f091fbf9" d="m2822.79,1758.79c-.09,6.93-1.08,12.05-1.08,12.05,0,0-13.42-1.91-31.06-2.2-27.6-.46-65.55,3.05-78.56,24.08-1.74,2.79-3.02,5.87-3.79,9.31-.63,2.83-1.3,6.67-1.96,11.4-.85,6.01-1.71,13.46-2.54,22.08-1.53,15.77-3.01,35.45-4.27,57.46h-58.25c1.57-4.87,3.17-9.37,4.78-13.46,4.92-11.82,9.87-24.95,13.58-39.19,2.25-8.57,4.06-17.55,5.15-26.88.25-2.11.46-4.25.62-6.4.22-2.78.39-5.59.47-8.43.73-23.56-3.54-49.14-16.65-76.13-.7-1.68-1.47-3.6-2.29-5.71-.65-1.7-1.33-3.53-2.02-5.5-2.63-7.44-5.43-16.71-7.67-27.35-3.02-14.41-5-31.33-4.06-49.55.77-14.65,3.43-30.15,8.99-45.88.8-2.26,1.65-4.52,2.57-6.8,1.57-3.88,3.33-7.76,5.28-11.65,6.06-5.41,15.69-6.75,26.36-7.84,2.12-.21,4.3-.42,6.5-.65-29.34,47.39-19.3,113.51-3.42,142.6,12.27,19.52,81.32,17.17,116.38,18.19,23.54.67,27.12,22.33,26.93,36.48Z"/>
    <path class="uuid-b98e7953-95e0-45c2-8a7a-6b615de93188" d="m2571.2,1817.93l64.5-1.81,223.37-68.45c-6.71-68.77,8.33-168.8,20.9-176.25,26.19,5.18,41.2,14.07,48.71,36.11,0,0,13.9,187.97-24.36,199.82-38.25,11.85-264.57,35.03-264.57,35.03l-23.33,5.9-66.87,24.9c-7.1-6.03,2.66-34.05,21.66-55.27Z"/>
    <path class="uuid-218d4d90-1567-4714-ae08-d22379a7dd65" d="m2571.2,1583.98s53.31,13.96,100.08-1.86c27-10.07,32.77-40.9,37-76.08-4.84-2.76-9.97-10.61-14.13-23.54,0,0-4.83,79.82-29.03,91.95-28.11,16.34-93.92,9.52-93.92,9.52Z"/>
    <path class="uuid-218d4d90-1567-4714-ae08-d22379a7dd65" d="m2879.96,1574.06c10.56,21.37,48.72,26.9,48.72,26.9,0,0-34.95,1.18-52.93-14.77-17.97-15.95-48.88-41.45-48.88-41.45l-5.17-16.85s47.7,24.79,58.26,46.16Z"/>
    <path class="uuid-218d4d90-1567-4714-ae08-d22379a7dd65" d="m2571.2,1583.98s53.31,13.96,100.08-1.86c27-10.07,32.77-40.9,37-76.08-4.84-2.76-9.97-10.61-14.13-23.54,0,0-4.83,79.82-29.03,91.95-28.11,16.34-93.92,9.52-93.92,9.52Z"/>
  </g>
  <g>
    <rect class="uuid-44745677-9949-4eee-8d97-229ce2dc8085" x="1493.78" y="1813.43" width="1700.68" height="779.43"/>
    <path class="uuid-8585f976-54de-4b08-b516-4889f091fbf9" d="m2791.45,2349.92h-682.6v-20.43h682.6c69.67,0,126.35-56.68,126.35-126.35s-56.68-126.35-126.35-126.35h-682.6v-20.43h682.6c80.93,0,146.78,65.84,146.78,146.78s-65.84,146.78-146.78,146.78Z"/>
    <rect class="uuid-8585f976-54de-4b08-b516-4889f091fbf9" x="1493.78" y="1813.43" width="1700.68" height="112.63"/>
    <rect class="uuid-218d4d90-1567-4714-ae08-d22379a7dd65" x="1433.51" y="1813.43" width="1821.21" height="79.54"/>
  </g>
  <g>
    <path class="uuid-218d4d90-1567-4714-ae08-d22379a7dd65" d="m2410.84,1724.04h-383.46l-35.29-284.65c-1.23-9.88,6.48-18.61,16.44-18.61h350.07c8.36,0,15.41,6.23,16.44,14.53l35.79,288.73Z"/>
    <rect class="uuid-218d4d90-1567-4714-ae08-d22379a7dd65" x="2130.13" y="1724.04" width="152.88" height="21.3"/>
    <rect class="uuid-218d4d90-1567-4714-ae08-d22379a7dd65" x="2075" y="1782.94" width="288.22" height="30.49"/>
    <polygon class="uuid-218d4d90-1567-4714-ae08-d22379a7dd65" points="2256.7 1782.94 2181.51 1782.94 2181.51 1745.34 2219.11 1745.34 2256.7 1782.94"/>
    <path class="uuid-1845e945-20f5-4b69-aa54-476dce5bd23c" d="m2410.84,1724.04h-32.58l-37.59-303.26h17.94c8.36,0,15.41,6.23,16.44,14.53l35.79,288.73Z"/>
  </g>
  <g>
    <path class="uuid-218d4d90-1567-4714-ae08-d22379a7dd65" d="m1914.36,1608.54h15.95c17.39,0,31.5,14.11,31.5,31.5v82.95h-78.95v-82.95c0-17.39,14.11-31.5,31.5-31.5Z"/>
    <rect class="uuid-218d4d90-1567-4714-ae08-d22379a7dd65" x="1910.85" y="1722.99" width="22.97" height="84.38"/>
    <rect class="uuid-218d4d90-1567-4714-ae08-d22379a7dd65" x="1914.3" y="1777.19" width="16.08" height="56.39" transform="translate(3727.73 -116.95) rotate(90)"/>
    <rect class="uuid-1845e945-20f5-4b69-aa54-476dce5bd23c" x="1920.56" y="1641.33" width="3.55" height="56.39" transform="translate(3591.86 -252.81) rotate(90)"/>
    <rect class="uuid-1845e945-20f5-4b69-aa54-476dce5bd23c" x="1920.56" y="1651.04" width="3.55" height="56.39" transform="translate(3601.57 -243.1) rotate(90)"/>
    <rect class="uuid-1845e945-20f5-4b69-aa54-476dce5bd23c" x="1920.56" y="1660.75" width="3.55" height="56.39" transform="translate(3611.29 -233.39) rotate(90)"/>
    <path class="uuid-1845e945-20f5-4b69-aa54-476dce5bd23c" d="m1894.14,1651.88c0-15.57,12.62-28.2,28.2-28.2h0c15.57,0,28.2,12.62,28.2,28.2h-56.39Z"/>
  </g>
  <g>
    <g>
      <rect class="uuid-324e8a63-7b2a-40b5-b619-3d0c9a580be8" x="1418.39" y="2211.44" width="218.51" height="217.7" transform="translate(3249.47 4500.38) rotate(175.06)"/>
      <rect class="uuid-324e8a63-7b2a-40b5-b619-3d0c9a580be8" x="1390.33" y="2211.76" width="259.63" height="43.58" transform="translate(3227.03 4327.87) rotate(175.06)"/>
      <rect class="uuid-44745677-9949-4eee-8d97-229ce2dc8085" x="1504.06" y="2211.44" width="47.18" height="217.7" transform="translate(3249.47 4500.38) rotate(175.06)"/>
      <rect class="uuid-17e0081b-d48c-4e43-a6f4-42d091e945d4" x="1414.64" y="2255.18" width="218.51" height="43.58" transform="translate(3238.26 4414.22) rotate(175.06)"/>
      <rect class="uuid-8585f976-54de-4b08-b516-4889f091fbf9" x="1500.31" y="2255.18" width="47.18" height="43.58" transform="translate(3238.25 4414.22) rotate(175.06)"/>
    </g>
    <path class="uuid-44745677-9949-4eee-8d97-229ce2dc8085" d="m1771,2086.19h0c-7.58-15.48-21.58-26.85-38.28-31.1l-652.67-173.88-11.77,42.25,702.72,162.74Z"/>
    <g>
      <g>
        <polygon class="uuid-b98e7953-95e0-45c2-8a7a-6b615de93188" points="2107.57 2288.23 2083.13 2259.09 2039.42 2278.12 2045.73 2299.83 2067.21 2330.24 2108.85 2308.04 2107.57 2288.23"/>
        <path class="uuid-e4c58264-c8f3-4f12-9c0a-3b2428873601" d="m2243.97,2328.56c-56.9-10.66-103.38-11.48-136.4-40.33,0,0-32.26,22.88-61.85,11.6-17.49,9.49-12.03,45.05-3.31,76.16,3.26,11.64,14.88,18.85,26.76,16.63l177.81-33.35c22.95-4.3,8.46-30.06-3.01-30.71Z"/>
        <path class="uuid-7e7990dd-7467-4700-9b6d-81967984ac25" d="m1453.83,2030.78s27.67,132.89,119.66,116.71c91.99-16.19,174.88-148.01,174.88-148.01,37.74,97.2,122.54,113.21,279.34,272.8l30.3-13.2,24.82-10.8c-57.46-87.09-136.89-216.17-292.67-370.58-20.35-21.28-53.93-22.53-75.8-2.81l-138.34,110.38-33.95-41.15-93.21,66.05,4.97,20.62Z"/>
        <path class="uuid-324e8a63-7b2a-40b5-b619-3d0c9a580be8" d="m2078.65,2243.99l-48.08,20.94c-5.65,2.46-8.08,9.41-5.42,15.52h0c2.66,6.11,9.4,9.07,15.05,6.61l48.08-20.94c5.65-2.46,8.08-9.41,5.42-15.52h0c-2.66-6.11-9.4-9.07-15.05-6.61Z"/>
      </g>
      <g>
        <polygon class="uuid-b98e7953-95e0-45c2-8a7a-6b615de93188" points="1980.36 2451.42 1969.58 2414.94 1921.91 2414.94 1919.02 2437.36 1926.59 2473.82 1973.62 2470.08 1980.36 2451.42"/>
        <path class="uuid-e4c58264-c8f3-4f12-9c0a-3b2428873601" d="m2089.32,2542.84c-47.91-32.49-90.2-51.79-108.96-91.43,0,0-38.71,8.1-61.33-14.05-19.93,1.73-29.11,36.88-33.51,69.02-1.6,11.71,6.06,22.68,17.57,25.32l176.73,40.5c22.76,5.21,19.76-24.18,9.5-29.36Z"/>
        <path class="uuid-7e7990dd-7467-4700-9b6d-81967984ac25" d="m1973.62,2404.91h-60.12c-80.04-208.92-151.42-257.45-147.2-361.63,0,0-150.57,186.91-240.64,162.17-114.03-31.31-78.22-236.7-78.22-236.7l13.43-2.8,124.45-25.99,7.9,28.79s.01,0,.04-.01l191.58-53.27c27.92-9.35,58.21,5.2,68.38,32.84,33.5,84.06,56.78,158.97,73.85,225.21.01.03.01.04.01.04,24.31,94.29,36.01,170.97,46.53,231.35Z"/>
        <path class="uuid-8585f976-54de-4b08-b516-4889f091fbf9" d="m1927.08,2173.52c-1-2.85-45.36-163.83-81.45-231.35-9.93-15.73-26.82-26.9-52.08-24.18-48.23,9.57-197.26,50.39-200.29,50.75l191.58-53.27c27.92-9.35,58.21,5.2,68.38,32.84,33.5,84.06,56.78,158.97,73.85,225.21Z"/>
        <path class="uuid-8585f976-54de-4b08-b516-4889f091fbf9" d="m1525.65,2205.44c89.5,26.71,240.64-162.17,240.64-162.17-4.21,104.19,67.16,152.71,147.21,361.63h5.52v-17.17s-98.99-240.16-106.47-286.89c-7.48-46.74-22.43-101.62-22.43-101.62-91.6,114.77-356.61,208.44-329.25-33.28l-13.43,2.8s-37.69,202.11,78.21,236.7Z"/>
        <path class="uuid-324e8a63-7b2a-40b5-b619-3d0c9a580be8" d="m1971.5,2399.3h-52.44c-6.17,0-11.16,5.4-11.16,12.07h0c0,6.67,5,12.07,11.16,12.07h52.44c6.17,0,11.16-5.4,11.16-12.07h0c0-6.67-5-12.07-11.16-12.07Z"/>
      </g>
      <g>
        <path class="uuid-218d4d90-1567-4714-ae08-d22379a7dd65" d="m1539.99,1479.59c-5.25,6.42-8.6,12.77-6.08,19.48,0,0,45.82,76.26-59.2,128.43-105.01,52.18-25.65,194.98-104.65,178.33-79-16.65-97.87-27.12-175.59,63.36-10.46,10.02-22.57,18.38-35.52,25.35,7.04-11.32,16.84-23.16,22.5-55.89,3.68-21.26,8.34-42.35,13.85-63.21,19.91-75.42,18.39-139.03,96.09-150.75,57.07-8.62,68.4-76.62,69.18-124.38.69-42.42,25.02-81.82,64.17-101.58,8.41-4.24,16.94-7.31,25.16-8.38,42.36,2.22,100.27,17.85,111.92,44.49,7.84,17.94-11.03,31.52-21.83,44.76Z"/>
        <path class="uuid-eacaefde-2c6e-40fd-9f15-bd827bd24c9a" d="m1807.22,1338.91s5.02,15.9-.5,27.81c-5.52,11.91-21.35,18.52-28.51,4.92-17.61-17.67,7.66-38.2,7.66-38.2l21.35,5.47Z"/>
        <g>
          <path class="uuid-e4c58264-c8f3-4f12-9c0a-3b2428873601" d="m1947.77,1437.79l-71.46-12.91c-11.89-2.14-23.1,6.24-24.41,18.24l-7.86,72.19c-.57,5.24.87,10.5,4.02,14.72l99.64,133.34c6.89,9.22,19.94,11.1,29.15,4.22l79.32-59.28c9.22-6.89,11.11-19.94,4.22-29.15l-99.64-133.34c-3.15-4.22-7.79-7.09-12.98-8.02Zm-54.56,35.16c-6.36,4.76-15.38,3.46-20.14-2.91-4.76-6.37-3.45-15.39,2.91-20.14,6.37-4.76,15.38-3.46,20.14,2.91,4.76,6.37,3.46,15.38-2.91,20.14Z"/>
          <path class="uuid-17e0081b-d48c-4e43-a6f4-42d091e945d4" d="m1979.31,1579.65c-5.24-3.92-8.06-8.95-8.44-15.11-.38-6.16,1.74-12.33,6.35-18.51,4.61-6.18,9.93-9.96,15.94-11.34,6.01-1.38,11.64-.12,16.89,3.8,5.25,3.92,8.06,8.99,8.45,15.21.39,6.22-1.7,12.39-6.26,18.49-4.56,6.11-9.88,9.86-15.96,11.25-6.08,1.39-11.74.13-16.98-3.79Zm4.59-6.14c3.23,2.41,6.77,3.04,10.6,1.88,3.84-1.16,7.42-3.97,10.74-8.43,3.33-4.45,5-8.68,5.03-12.69.03-4.01-1.57-7.22-4.81-9.63-3.3-2.47-6.84-3.12-10.62-1.97-3.77,1.16-7.35,4-10.73,8.52s-5.09,8.76-5.13,12.71c-.04,3.95,1.6,7.15,4.9,9.62Zm-24.63,45.57l-8.3-6.2,4.83-113.91,8.3,6.2-4.83,113.91Zm-54.26-39.52c-5.24-3.92-8.06-8.99-8.45-15.21-.39-6.22,1.7-12.39,6.26-18.49,4.56-6.11,9.88-9.86,15.96-11.25,6.08-1.39,11.74-.13,16.98,3.79,5.25,3.92,8.06,8.96,8.44,15.11.38,6.16-1.74,12.33-6.35,18.51-4.61,6.18-9.93,9.96-15.94,11.34-6.01,1.38-11.64.12-16.89-3.8Zm4.59-6.14c3.31,2.47,6.84,3.13,10.62,1.97,3.77-1.15,7.35-4,10.73-8.52,3.38-4.53,5.09-8.76,5.13-12.71.04-3.94-1.6-7.15-4.9-9.62-3.23-2.41-6.77-3.04-10.6-1.88-3.83,1.17-7.42,3.97-10.74,8.43-3.33,4.45-5,8.69-5.03,12.69-.03,4.01,1.57,7.22,4.81,9.63Z"/>
          <path class="uuid-17e0081b-d48c-4e43-a6f4-42d091e945d4" d="m1886.45,1463.91c-.71.53-1.63.75-2.56.54-7.29-1.69-16.68-10.74-28.71-27.66-9.43-13.27-19.8-30.56-29.2-48.67-15.94-30.72-66.27-40.79-66.78-40.88-1.68-.33-2.78-1.96-2.46-3.64.33-1.68,1.96-2.78,3.64-2.46,2.19.42,53.8,10.76,71.11,44.12,21.07,40.61,43.19,70.69,53.79,73.14,1.67.39,2.71,2.06,2.32,3.73-.17.74-.6,1.36-1.17,1.79Z"/>
        </g>
        <path class="uuid-b98e7953-95e0-45c2-8a7a-6b615de93188" d="m1504.15,1687.75c3.01,15.18,12.04,28.28,26.53,26.88,0,0,108.45-70.57,131.07-90.42,22.63-19.85,118.47-232.23,118.47-232.23,21.28-12.68,5.51-26.71,31.53-45.07,0,0,1.37-5.38-3.05-5.87-2.33.23-7.61,5.59-14.15,8.02-1.01-.68,13.93-9.57,12.67-10.16-5.25-2.44-12.57-4.13-21.35-5.47-3.16-.57-27.7,3.5-33.06,12.44-3.9,5.17-.64,33.28-.64,33.28l-133.04,189.63s-87.5,65.6-105.96,80.14c-9.13,7.18-11.94,23.98-9,38.82Z"/>
        <path class="uuid-324e8a63-7b2a-40b5-b619-3d0c9a580be8" d="m1585.32,1939.95l-137.88,28.79s-45.2-149.09-61.53-183.61c-16.33-34.52-16.6-66.87-9.56-90,6.93-22.74,34.19-49.99,42.55-53.89.17-.07.3-.13.43-.18,39.1-14.68,65.06-16.66,95.38-16.85,8.22-.05,15.84,4,20.11,10.72,17.72,27.88,50.54,70.85,56.36,98.54,9.37,38.5-17.25,112.9-5.86,206.48Z"/>
        <path class="uuid-17e0081b-d48c-4e43-a6f4-42d091e945d4" d="m1470.64,1815.1c-22.69,59.66,6.12,98.7,15.69,145.53l-38.89,8.12s-45.2-149.1-61.52-183.61c-3.17-6.68-5.73-13.29-7.73-19.76-8.43-26.95-7.51-51.6-1.83-70.24,11.43-22.05,49.88-32.19,83.05-4.08h.01c29.34,32.91,36.37,57.93,11.23,124.03Z"/>
        <path class="uuid-eacaefde-2c6e-40fd-9f15-bd827bd24c9a" d="m1434.07,1554.53c11.34,40.17,1.6,65.61-14.74,86.54,34.12,5.74,79.13,11.38,71.45-16.93l6.97-56.57-63.68-13.05Z"/>
        <path class="uuid-b98e7953-95e0-45c2-8a7a-6b615de93188" d="m1426.29,1513.45c-50.68-1.68-14.72,35.05,7.78,41.08,9.25,14.17,34.65,36.17,46.55,37.27,41.18,3.81,63.96-49.83,51.76-115.7-12.21-65.86-102.03-.96-106.09,37.34Z"/>
      </g>
    </g>
    <path class="uuid-8585f976-54de-4b08-b516-4889f091fbf9" d="m961.44,1769.33c.39-4.38,4.28-7.62,8.65-7.22l67.15,6.05.61.15c20.03,5.04,36.12,20.48,41.99,40.28l16.43,55.42c.26.88.35,1.77.31,2.64l71.22,601.01-99.09,12.22-53.63-610.05,64.92-4.65-15.43-52.06c-4.22-14.24-15.69-25.38-30.02-29.2l-65.87-5.93c-4.38-.39-7.61-4.27-7.22-8.65Z"/>
    <g>
      <g>
        <path class="uuid-8585f976-54de-4b08-b516-4889f091fbf9" d="m1306.27,2162.77c2.01-3.1,20.54-30.41,50.52-33.64,15.13-1.63,31.94-.25,47.35,3.88,17.49,4.69,31.88,12.67,39.47,21.9,14.88,18.1.05,35.12-33.75,38.76h0c-29.56,3.18-84.16-13.57-90.29-15.5l-19.36-6.07,6.06-9.33Zm86.9,10.6c18.03-1.94,26.31-9.71,21.66-15.37-2.82-3.43-10.13-5.68-13.14-6.49-8.67-2.32-18.95-3.09-28.21-2.09-9.66,1.04-20.21,8.82-27.88,16.85,17.51,4.39,37.41,8.19,47.56,7.1h0Z"/>
        <path class="uuid-8585f976-54de-4b08-b516-4889f091fbf9" d="m1299.45,2171.61c-6.08-2.06-60.08-20.67-82.1-40.66h0c-25.17-22.85-27.13-45.34-4.44-51.2,11.57-2.99,27.9-.96,44.79,5.55,14.89,5.74,29.29,14.53,40.55,24.75,22.33,20.27,21.22,53.25,21.01,56.95l-.6,11.11-19.22-6.5Zm-65.11-72.41c-7.08,1.83-4.97,12.99,8.46,25.18h0c7.56,6.86,25.89,15.51,42.62,22.28-1.46-11-5.41-23.5-12.61-30.03-6.89-6.26-15.65-11.7-24.03-14.93-.71-.27-1.67-.62-2.78-.99-3.47-1.13-8.41-2.35-11.67-1.51Z"/>
      </g>
      <rect class="uuid-7e7990dd-7467-4700-9b6d-81967984ac25" x="1147.59" y="2166.46" width="248.64" height="247.72" transform="translate(1771.93 4861.96) rotate(-161.96)"/>
      <rect class="uuid-7e7990dd-7467-4700-9b6d-81967984ac25" x="1154.88" y="2171.33" width="295.43" height="49.59" transform="translate(1860.97 4687.7) rotate(-161.96)"/>
      <rect class="uuid-44745677-9949-4eee-8d97-229ce2dc8085" x="1245.07" y="2166.46" width="53.68" height="247.72" transform="translate(1771.93 4861.96) rotate(-161.96)"/>
      <rect class="uuid-8585f976-54de-4b08-b516-4889f091fbf9" x="1162.92" y="2218.48" width="248.64" height="49.59" transform="translate(1816.4 4774.92) rotate(-161.96)"/>
      <rect class="uuid-7202449b-b5a3-44ec-8742-df3d3843a83c" x="1260.4" y="2218.48" width="53.68" height="49.59" transform="translate(1816.4 4774.92) rotate(-161.96)"/>
    </g>
    <g>
      <path class="uuid-324e8a63-7b2a-40b5-b619-3d0c9a580be8" d="m1339.94,2116.08l-212.13,13.88c-12.51-64.54,5.26-79.84-7.07-225.64l212.13-13.88,7.07,225.64Z"/>
      <path class="uuid-0541b8cf-08a2-4984-8b69-8c31f8474e93" d="m1259.69,2035.83s-34.6,12.67-88.52-22.13c0,0,30.11,46.75,74.49,44.15,44.37-2.61,14.03-22.02,14.03-22.02Z"/>
      <polygon class="uuid-17e0081b-d48c-4e43-a6f4-42d091e945d4" points="1332.86 1890.43 1370.59 2114.07 1339.94 2116.08 1332.86 1890.43"/>
      <path class="uuid-bc81ff93-72df-483a-ac49-c57aa37750a4" d="m1275.67,1910.07l-4.56.3-2.21-30.77c-.76-10.51-8.74-28.52-20.33-45.87-12.84-19.22-23.3-27.67-27.59-27.39-4.29.28-13.44,10.02-23.4,30.73-9,18.7-14.32,37.58-13.56,48.09l2.21,30.77-4.56.3-2.22-30.77c-.98-13.6,6.92-35.57,13.98-50.25,3.67-7.63,16.47-32.56,27.24-33.27,10.77-.7,27.02,22.33,31.75,29.41,9.1,13.62,20.07,34.35,21.05,47.95l2.21,30.77Z"/>
    </g>
    <g>
      <polygon class="uuid-324e8a63-7b2a-40b5-b619-3d0c9a580be8" points="1689.41 2067.5 1689.82 2075.78 1691.07 2101.27 1691.11 2102.09 1693.24 2145.52 1693.28 2146.33 1695.4 2189.77 1695.4 2189.78 1695.44 2190.58 1697.58 2234.02 1697.62 2234.84 1699.74 2278.28 1699.78 2279.09 1701.91 2322.53 1701.95 2323.35 1704.08 2366.78 1704.12 2367.6 1706.25 2411.03 1706.29 2411.85 1706.29 2411.85 1706.46 2415.33 1706.85 2423.29 1707.65 2423.22 1707.26 2415.26 1707.1 2411.99 1707.1 2411.98 1707.06 2411.17 1704.92 2367.74 1704.88 2366.91 1702.76 2323.48 1702.72 2322.67 1700.59 2279.23 1700.55 2278.41 1698.42 2234.97 1698.38 2234.16 1696.26 2190.72 1696.22 2189.91 1694.08 2146.47 1694.04 2145.66 1691.91 2102.22 1691.87 2101.4 1690.63 2075.97 1690.22 2067.69 1689.41 2067.5"/>
      <polygon class="uuid-324e8a63-7b2a-40b5-b619-3d0c9a580be8" points="1624.21 2052.11 1624.62 2060.4 1626.09 2090.32 1626.13 2091.14 1628.25 2134.58 1628.29 2135.4 1630.42 2178.83 1630.46 2179.64 1632.59 2223.08 1632.59 2223.08 1632.63 2223.89 1634.76 2267.33 1634.8 2268.14 1636.93 2311.59 1636.97 2312.4 1639.09 2355.83 1639.13 2356.65 1641.26 2400.09 1641.3 2400.91 1642.27 2420.71 1642.66 2428.67 1643.46 2428.61 1643.07 2420.64 1642.11 2401.04 1642.07 2400.22 1639.94 2356.79 1639.9 2355.97 1637.77 2312.53 1637.73 2311.72 1635.61 2268.28 1635.57 2267.47 1633.43 2224.03 1633.39 2223.22 1631.26 2179.78 1631.22 2178.97 1629.1 2135.53 1629.06 2134.71 1626.93 2091.28 1626.89 2090.46 1625.42 2060.59 1625.02 2052.3 1624.21 2052.11"/>
      <polygon class="uuid-324e8a63-7b2a-40b5-b619-3d0c9a580be8" points="1559.01 2036.72 1559.41 2045.01 1561.09 2079.37 1561.13 2080.2 1563.27 2123.63 1563.31 2124.45 1565.44 2167.88 1565.48 2168.7 1567.6 2212.14 1567.64 2212.95 1569.77 2256.39 1569.81 2257.21 1571.94 2300.64 1571.94 2300.65 1571.98 2301.45 1571.98 2301.46 1574.11 2344.89 1574.15 2345.71 1576.28 2389.14 1576.32 2389.96 1578.09 2426.09 1578.44 2433.4 1578.48 2434.06 1578.48 2434.22 1579.29 2434.35 1579.27 2433.99 1579.25 2433.53 1578.88 2426.03 1577.12 2390.1 1577.08 2389.28 1574.96 2345.84 1574.92 2345.03 1572.79 2301.6 1572.79 2301.59 1572.75 2300.78 1572.75 2300.78 1570.61 2257.34 1570.57 2256.53 1568.45 2213.09 1568.41 2212.27 1566.28 2168.83 1566.24 2168.02 1564.11 2124.59 1564.07 2123.76 1561.94 2080.33 1561.9 2079.51 1560.22 2045.2 1559.81 2036.91 1559.01 2036.72"/>
      <polygon class="uuid-324e8a63-7b2a-40b5-b619-3d0c9a580be8" points="1493.8 2021.34 1494.21 2029.62 1496.11 2068.43 1496.15 2069.25 1498.28 2112.68 1498.32 2113.5 1500.44 2156.94 1500.48 2157.75 1502.62 2201.19 1502.66 2202.01 1504.79 2245.45 1504.83 2246.26 1506.95 2289.7 1506.99 2290.51 1509.12 2333.95 1509.16 2334.76 1509.16 2334.77 1511.29 2378.2 1511.33 2379.02 1513.46 2422.46 1513.5 2423.27 1513.9 2431.47 1514.29 2439.43 1515.09 2439.37 1514.7 2431.4 1514.31 2423.41 1514.27 2422.59 1512.14 2379.15 1512.1 2378.34 1509.96 2334.9 1509.96 2334.9 1509.92 2334.08 1507.8 2290.65 1507.76 2289.84 1505.63 2246.4 1505.59 2245.58 1503.46 2202.14 1503.42 2201.33 1501.3 2157.89 1501.26 2157.07 1499.12 2113.64 1499.08 2112.82 1496.95 2069.38 1496.91 2068.56 1495.02 2029.81 1494.61 2021.53 1493.8 2021.34"/>
      <polygon class="uuid-324e8a63-7b2a-40b5-b619-3d0c9a580be8" points="1428.6 2005.95 1429.01 2014.24 1431.13 2057.49 1431.17 2058.3 1433.29 2101.74 1433.33 2102.56 1435.46 2145.99 1435.5 2146.8 1437.63 2190.25 1437.67 2191.06 1439.8 2234.5 1439.84 2235.31 1441.97 2278.76 1442.01 2279.57 1444.14 2323 1444.18 2323.82 1446.3 2367.26 1446.34 2368.07 1448.48 2411.51 1448.52 2412.32 1449.71 2436.85 1450.1 2444.81 1450.9 2444.75 1450.51 2436.79 1449.32 2412.46 1449.28 2411.65 1447.15 2368.21 1447.11 2367.39 1444.98 2323.96 1444.94 2323.14 1442.81 2279.7 1442.77 2278.89 1440.65 2235.45 1440.61 2234.64 1438.47 2191.19 1438.43 2190.38 1436.3 2146.94 1436.26 2146.13 1434.14 2102.69 1434.1 2101.87 1431.97 2058.44 1431.93 2057.63 1429.81 2014.43 1429.4 2006.15 1428.6 2005.95"/>
      <polygon class="uuid-324e8a63-7b2a-40b5-b619-3d0c9a580be8" points="1363.39 1990.57 1363.8 1998.86 1366.13 2046.54 1366.17 2047.36 1368.31 2090.8 1368.35 2091.61 1370.48 2135.05 1370.48 2135.05 1370.52 2135.87 1372.64 2179.3 1372.68 2180.11 1372.68 2180.12 1374.81 2223.56 1374.85 2224.37 1376.98 2267.81 1377.02 2268.62 1379.15 2312.06 1379.19 2312.88 1381.32 2356.31 1381.36 2357.12 1383.49 2400.57 1383.53 2401.38 1385.53 2442.23 1385.65 2444.82 1385.69 2445.63 1385.92 2450.2 1386.71 2450.13 1386.5 2445.77 1386.46 2444.96 1386.32 2442.17 1384.33 2401.51 1384.29 2400.7 1382.16 2357.26 1382.12 2356.45 1380 2313.01 1379.96 2312.19 1377.83 2268.76 1377.79 2267.95 1375.65 2224.5 1375.61 2223.69 1373.49 2180.26 1373.45 2179.44 1371.32 2136 1371.28 2135.19 1371.28 2135.18 1369.15 2091.75 1369.11 2090.93 1366.98 2047.5 1366.98 2047.49 1366.94 2046.68 1364.6 1999.05 1364.2 1990.76 1363.39 1990.57"/>
      <polygon class="uuid-324e8a63-7b2a-40b5-b619-3d0c9a580be8" points="1298.19 1975.19 1298.59 1983.46 1301.15 2035.6 1301.19 2036.42 1303.32 2079.85 1303.36 2080.67 1303.36 2080.67 1305.48 2124.11 1305.53 2124.92 1307.66 2168.36 1307.7 2169.17 1309.83 2212.61 1309.87 2213.43 1311.99 2256.86 1312.03 2257.68 1314.16 2301.12 1314.2 2301.93 1316.33 2345.36 1316.33 2345.37 1316.37 2346.19 1318.5 2389.62 1318.54 2390.43 1320.67 2433.87 1320.71 2434.69 1321.35 2447.62 1321.74 2455.58 1322.52 2455.51 1322.13 2447.55 1321.51 2434.82 1321.47 2434.01 1319.35 2390.57 1319.31 2389.76 1317.18 2346.32 1317.14 2345.51 1317.14 2345.5 1315.01 2302.07 1314.96 2301.25 1312.84 2257.81 1312.8 2257 1310.67 2213.56 1310.63 2212.74 1308.5 2169.31 1308.46 2168.5 1306.34 2125.06 1306.3 2124.24 1304.16 2080.81 1304.16 2080.8 1304.12 2079.99 1301.99 2036.55 1301.95 2035.73 1299.41 1983.66 1299 1975.38 1298.19 1975.19"/>
      <g>
        <polygon class="uuid-324e8a63-7b2a-40b5-b619-3d0c9a580be8" points="1258.65 2467.31 1257.85 2467.18 1257.89 2468 1258.69 2468.13 1258.65 2467.32 1258.65 2467.31"/>
        <polygon class="uuid-324e8a63-7b2a-40b5-b619-3d0c9a580be8" points="1232.99 1959.8 1233.39 1968.08 1236.17 2024.65 1236.21 2025.47 1238.33 2068.91 1238.37 2069.73 1240.5 2113.16 1240.54 2113.97 1242.67 2157.42 1242.71 2158.23 1244.84 2201.67 1244.88 2202.48 1247.01 2245.92 1247.05 2246.74 1249.18 2290.17 1249.22 2290.99 1251.34 2334.43 1251.38 2335.24 1253.52 2378.68 1253.56 2379.49 1255.68 2422.93 1255.72 2423.74 1255.72 2423.75 1257.16 2452.99 1257.55 2460.95 1258.34 2460.89 1257.95 2452.93 1256.52 2423.88 1256.48 2423.06 1254.35 2379.63 1254.31 2378.81 1252.19 2335.37 1252.15 2334.56 1250.02 2291.13 1250.02 2291.12 1249.98 2290.31 1247.85 2246.87 1247.81 2246.05 1245.68 2202.62 1245.64 2201.8 1243.51 2158.36 1243.47 2157.55 1241.34 2114.11 1241.3 2113.3 1239.18 2069.86 1239.14 2069.04 1237.01 2025.61 1236.97 2024.79 1234.2 1968.27 1233.79 1959.99 1232.99 1959.8"/>
      </g>
      <polygon class="uuid-324e8a63-7b2a-40b5-b619-3d0c9a580be8" points="1167.78 1944.41 1168.19 1952.7 1171.17 2013.71 1171.21 2014.53 1173.35 2057.96 1173.39 2058.78 1175.52 2102.22 1175.56 2103.03 1177.68 2146.47 1177.72 2147.28 1179.85 2190.72 1179.89 2191.54 1182.02 2234.98 1182.06 2235.79 1184.19 2279.23 1184.23 2280.05 1186.36 2323.48 1186.4 2324.29 1188.53 2367.74 1188.57 2368.55 1190.69 2411.99 1190.73 2412.8 1192.87 2456.24 1192.91 2457.06 1192.97 2458.38 1193.36 2466.34 1194.15 2466.27 1193.76 2458.31 1193.7 2457.18 1193.66 2456.37 1191.54 2412.94 1191.5 2412.13 1189.37 2368.68 1189.33 2367.87 1187.2 2324.43 1187.16 2323.62 1185.03 2280.18 1184.99 2279.36 1182.86 2235.93 1182.82 2235.11 1180.69 2191.67 1180.65 2190.86 1178.53 2147.42 1178.49 2146.61 1176.36 2103.16 1176.32 2102.35 1174.19 2058.92 1174.15 2058.1 1172.02 2014.66 1171.98 2013.84 1168.99 1952.89 1168.59 1944.6 1167.78 1944.41"/>
      <polygon class="uuid-324e8a63-7b2a-40b5-b619-3d0c9a580be8" points="1102.57 1929.03 1102.98 1937.31 1106.19 2002.77 1106.23 2003.58 1108.36 2047.01 1108.4 2047.83 1110.53 2091.27 1110.57 2092.09 1112.7 2135.52 1112.74 2136.34 1114.87 2179.78 1114.91 2180.59 1117.03 2224.03 1117.07 2224.85 1119.2 2268.28 1119.24 2269.1 1121.38 2312.53 1121.41 2313.35 1123.54 2356.79 1123.58 2357.6 1125.71 2401.04 1125.75 2401.86 1127.88 2445.29 1127.92 2446.11 1128.78 2463.76 1129.17 2471.72 1129.96 2471.65 1129.57 2463.69 1128.72 2446.25 1128.68 2445.43 1126.55 2401.99 1126.51 2401.18 1124.38 2357.74 1124.34 2356.92 1122.21 2313.48 1122.17 2312.67 1120.04 2269.24 1120 2268.42 1117.88 2224.98 1117.84 2224.17 1115.71 2180.73 1115.67 2179.91 1113.54 2136.47 1113.5 2135.66 1111.37 2092.23 1111.33 2091.4 1109.2 2047.97 1109.16 2047.15 1107.04 2003.72 1107 2002.9 1103.79 1937.51 1103.39 1929.22 1102.57 1929.03"/>
      <polygon class="uuid-324e8a63-7b2a-40b5-b619-3d0c9a580be8" points="1027.8 1989.56 1027.86 1990.38 1027.86 1990.39 1035.96 1991.75 1106.23 2003.58 1107.04 2003.72 1171.21 2014.53 1172.02 2014.66 1236.21 2025.47 1237.01 2025.61 1301.19 2036.42 1301.99 2036.55 1366.17 2047.36 1366.98 2047.49 1366.98 2047.5 1431.17 2058.3 1431.97 2058.44 1496.15 2069.25 1496.95 2069.38 1561.13 2080.2 1561.94 2080.33 1626.13 2091.14 1626.93 2091.28 1691.11 2102.09 1691.91 2102.22 1730.98 2108.8 1738.95 2110.14 1738.95 2109.33 1730.98 2107.99 1691.87 2101.4 1691.07 2101.27 1626.89 2090.46 1626.09 2090.32 1561.9 2079.51 1561.09 2079.37 1496.91 2068.56 1496.11 2068.43 1431.93 2057.63 1431.13 2057.49 1366.94 2046.68 1366.13 2046.54 1301.95 2035.73 1301.15 2035.6 1236.97 2024.79 1236.17 2024.65 1171.98 2013.84 1171.17 2013.71 1107 2002.9 1106.19 2002.77 1035.89 1990.92 1027.8 1989.56"/>
      <polygon class="uuid-324e8a63-7b2a-40b5-b619-3d0c9a580be8" points="1031.29 2034.04 1031.35 2034.86 1039.45 2036.23 1108.4 2047.83 1109.2 2047.97 1173.39 2058.78 1174.19 2058.92 1238.37 2069.73 1239.18 2069.86 1303.36 2080.67 1303.36 2080.67 1304.16 2080.8 1304.16 2080.81 1368.35 2091.61 1369.15 2091.75 1433.33 2102.56 1434.14 2102.69 1498.32 2113.5 1499.12 2113.64 1563.31 2124.45 1564.11 2124.59 1628.29 2135.4 1629.1 2135.53 1693.28 2146.33 1694.08 2146.47 1730.98 2152.68 1738.95 2154.03 1738.95 2153.22 1730.98 2151.88 1694.04 2145.66 1693.24 2145.52 1629.06 2134.71 1628.25 2134.58 1564.07 2123.76 1563.27 2123.63 1499.08 2112.82 1498.28 2112.68 1434.1 2101.87 1433.29 2101.74 1369.11 2090.93 1368.31 2090.8 1304.12 2079.99 1303.32 2079.85 1239.14 2069.04 1238.33 2068.91 1174.15 2058.1 1173.35 2057.96 1109.16 2047.15 1108.36 2047.01 1039.38 2035.4 1031.29 2034.04"/>
      <polygon class="uuid-324e8a63-7b2a-40b5-b619-3d0c9a580be8" points="1034.79 2078.51 1034.85 2079.33 1042.94 2080.7 1110.57 2092.09 1111.37 2092.23 1175.56 2103.03 1176.36 2103.16 1240.54 2113.97 1241.34 2114.11 1305.53 2124.92 1306.34 2125.06 1370.52 2135.87 1371.32 2136 1435.5 2146.8 1436.3 2146.94 1500.48 2157.75 1501.3 2157.89 1565.48 2168.7 1566.28 2168.83 1630.46 2179.64 1631.26 2179.78 1695.44 2190.58 1696.26 2190.72 1730.98 2196.57 1738.95 2197.91 1738.95 2197.11 1730.98 2195.77 1696.22 2189.91 1695.4 2189.78 1695.4 2189.77 1631.22 2178.97 1630.42 2178.83 1566.24 2168.02 1565.44 2167.88 1501.26 2157.07 1500.44 2156.94 1436.26 2146.13 1435.46 2145.99 1371.28 2135.19 1371.28 2135.18 1370.48 2135.05 1370.48 2135.05 1306.3 2124.24 1305.48 2124.11 1241.3 2113.3 1240.5 2113.16 1176.32 2102.35 1175.52 2102.22 1111.33 2091.4 1110.53 2091.27 1042.88 2079.88 1034.79 2078.51"/>
      <polygon class="uuid-324e8a63-7b2a-40b5-b619-3d0c9a580be8" points="1038.28 2122.99 1038.35 2123.81 1046.44 2125.18 1112.74 2136.34 1113.54 2136.47 1177.72 2147.28 1178.53 2147.42 1242.71 2158.23 1243.51 2158.36 1307.7 2169.17 1308.5 2169.31 1372.68 2180.11 1372.68 2180.12 1373.49 2180.26 1437.67 2191.06 1438.47 2191.19 1502.66 2202.01 1503.46 2202.14 1567.64 2212.95 1568.45 2213.09 1632.63 2223.89 1633.43 2224.03 1697.62 2234.84 1698.42 2234.97 1730.98 2240.46 1738.95 2241.8 1738.95 2240.99 1730.98 2239.66 1698.38 2234.16 1697.58 2234.02 1633.39 2223.22 1632.59 2223.08 1632.59 2223.08 1568.41 2212.27 1567.6 2212.14 1503.42 2201.33 1502.62 2201.19 1438.43 2190.38 1437.63 2190.25 1373.45 2179.44 1372.64 2179.3 1308.46 2168.5 1307.66 2168.36 1243.47 2157.55 1242.67 2157.42 1178.49 2146.61 1177.68 2146.47 1113.5 2135.66 1112.7 2135.52 1046.38 2124.35 1038.28 2122.99"/>
      <polygon class="uuid-324e8a63-7b2a-40b5-b619-3d0c9a580be8" points="1041.77 2167.47 1041.84 2168.29 1049.94 2169.65 1114.91 2180.59 1115.71 2180.73 1179.89 2191.54 1180.69 2191.67 1244.88 2202.48 1245.68 2202.62 1309.87 2213.43 1310.67 2213.56 1374.85 2224.37 1375.65 2224.5 1439.84 2235.31 1440.65 2235.45 1504.83 2246.26 1505.63 2246.4 1569.81 2257.21 1570.61 2257.34 1634.8 2268.14 1635.61 2268.28 1699.78 2279.09 1700.59 2279.23 1730.98 2284.35 1738.95 2285.69 1738.95 2284.88 1730.98 2283.54 1700.55 2278.41 1699.74 2278.28 1635.57 2267.47 1634.76 2267.33 1570.57 2256.53 1569.77 2256.39 1505.59 2245.58 1504.79 2245.45 1440.61 2234.64 1439.8 2234.5 1375.61 2223.69 1374.81 2223.56 1310.63 2212.74 1309.83 2212.61 1245.64 2201.8 1244.84 2201.67 1180.65 2190.86 1179.85 2190.72 1115.67 2179.91 1114.87 2179.78 1049.87 2168.83 1041.77 2167.47"/>
      <polygon class="uuid-324e8a63-7b2a-40b5-b619-3d0c9a580be8" points="1045.27 2211.95 1045.33 2212.77 1053.43 2214.13 1117.07 2224.85 1117.88 2224.98 1182.06 2235.79 1182.86 2235.93 1247.05 2246.74 1247.85 2246.87 1312.03 2257.68 1312.84 2257.81 1377.02 2268.62 1377.83 2268.76 1442.01 2279.57 1442.81 2279.7 1506.99 2290.51 1507.8 2290.65 1571.98 2301.45 1571.98 2301.46 1572.79 2301.59 1572.79 2301.6 1636.97 2312.4 1637.77 2312.53 1701.95 2323.35 1702.76 2323.48 1730.98 2328.24 1738.95 2329.58 1738.95 2328.77 1730.98 2327.43 1702.72 2322.67 1701.91 2322.53 1637.73 2311.72 1636.93 2311.59 1572.75 2300.78 1572.75 2300.78 1571.94 2300.65 1571.94 2300.64 1507.76 2289.84 1506.95 2289.7 1442.77 2278.89 1441.97 2278.76 1377.79 2267.95 1376.98 2267.81 1312.8 2257 1311.99 2256.86 1247.81 2246.05 1247.01 2245.92 1182.82 2235.11 1182.02 2234.98 1117.84 2224.17 1117.03 2224.03 1053.36 2213.31 1045.27 2211.95"/>
      <polygon class="uuid-324e8a63-7b2a-40b5-b619-3d0c9a580be8" points="1048.76 2256.42 1048.83 2257.25 1056.92 2258.61 1119.24 2269.1 1120.04 2269.24 1184.23 2280.05 1185.03 2280.18 1249.22 2290.99 1250.02 2291.12 1250.02 2291.13 1314.2 2301.93 1315.01 2302.07 1379.19 2312.88 1380 2313.01 1444.18 2323.82 1444.98 2323.96 1509.16 2334.76 1509.16 2334.77 1509.96 2334.9 1509.96 2334.9 1574.15 2345.71 1574.96 2345.84 1639.13 2356.65 1639.94 2356.79 1704.12 2367.6 1704.92 2367.74 1730.98 2372.12 1738.95 2373.46 1738.95 2372.65 1730.98 2371.31 1704.88 2366.91 1704.08 2366.78 1639.9 2355.97 1639.09 2355.83 1574.92 2345.03 1574.11 2344.89 1509.92 2334.08 1509.12 2333.95 1444.94 2323.14 1444.14 2323 1379.96 2312.19 1379.15 2312.06 1314.96 2301.25 1314.16 2301.12 1249.98 2290.31 1249.18 2290.17 1184.99 2279.36 1184.19 2279.23 1120 2268.42 1119.2 2268.28 1056.86 2257.79 1056.86 2257.78 1048.76 2256.42"/>
      <polygon class="uuid-324e8a63-7b2a-40b5-b619-3d0c9a580be8" points="1052.26 2300.9 1052.32 2301.72 1060.41 2303.08 1121.41 2313.35 1122.21 2313.48 1186.4 2324.29 1187.2 2324.43 1251.38 2335.24 1252.19 2335.37 1316.37 2346.19 1317.18 2346.32 1381.36 2357.12 1382.16 2357.26 1446.34 2368.07 1447.15 2368.21 1511.33 2379.02 1512.14 2379.15 1576.32 2389.96 1577.12 2390.1 1641.3 2400.91 1642.11 2401.04 1706.29 2411.85 1706.29 2411.85 1707.1 2411.98 1707.1 2411.99 1720.13 2414.18 1738.95 2417.35 1738.95 2416.54 1723.35 2413.91 1723.34 2413.91 1707.06 2411.17 1706.25 2411.03 1642.07 2400.22 1641.26 2400.09 1577.08 2389.28 1576.28 2389.14 1512.1 2378.34 1511.29 2378.2 1447.11 2367.39 1446.3 2367.26 1382.12 2356.45 1381.32 2356.31 1317.14 2345.51 1317.14 2345.5 1316.33 2345.37 1316.33 2345.36 1252.15 2334.56 1251.34 2334.43 1187.16 2323.62 1186.36 2323.48 1122.17 2312.67 1121.38 2312.53 1060.35 2302.26 1052.26 2300.9"/>
      <polygon class="uuid-324e8a63-7b2a-40b5-b619-3d0c9a580be8" points="1055.75 2345.37 1055.82 2346.19 1055.82 2346.19 1063.91 2347.56 1123.58 2357.6 1124.38 2357.74 1188.57 2368.55 1189.37 2368.68 1253.56 2379.49 1254.35 2379.63 1318.54 2390.43 1319.35 2390.57 1383.53 2401.38 1384.33 2401.51 1448.52 2412.32 1449.32 2412.46 1513.5 2423.27 1514.31 2423.41 1546.15 2428.77 1577.84 2434.11 1577.85 2434.11 1578.48 2434.22 1579.29 2434.35 1579.27 2433.99 1581.04 2433.83 1579.25 2433.53 1578.44 2433.4 1549.36 2428.5 1549.35 2428.5 1514.27 2422.59 1513.46 2422.46 1449.28 2411.65 1448.48 2411.51 1384.29 2400.7 1383.49 2400.57 1319.31 2389.76 1318.5 2389.62 1254.31 2378.81 1253.52 2378.68 1189.33 2367.87 1188.53 2367.74 1124.34 2356.92 1123.54 2356.79 1063.85 2346.74 1055.75 2345.37"/>
      <polygon class="uuid-324e8a63-7b2a-40b5-b619-3d0c9a580be8" points="1059.24 2389.85 1059.31 2390.66 1067.41 2392.03 1125.75 2401.86 1126.55 2401.99 1190.73 2412.8 1191.54 2412.94 1255.72 2423.74 1255.72 2423.75 1256.52 2423.88 1320.71 2434.69 1321.51 2434.82 1372.16 2443.35 1385.69 2445.63 1386.5 2445.77 1403.86 2448.69 1407.05 2448.42 1386.46 2444.96 1385.65 2444.82 1375.37 2443.08 1375.35 2443.08 1321.47 2434.01 1320.67 2433.87 1256.48 2423.06 1255.68 2422.93 1191.5 2412.13 1190.69 2411.99 1126.51 2401.18 1125.71 2401.04 1067.35 2391.21 1059.24 2389.85"/>
      <polygon class="uuid-324e8a63-7b2a-40b5-b619-3d0c9a580be8" points="1062.74 2434.32 1062.8 2435.14 1070.9 2436.5 1127.92 2446.11 1128.72 2446.25 1192.91 2457.06 1193.7 2457.18 1198.17 2457.94 1229.86 2463.28 1229.87 2463.28 1233.08 2463.01 1201.39 2457.67 1193.66 2456.37 1192.87 2456.24 1128.68 2445.43 1127.88 2445.29 1070.83 2435.68 1062.74 2434.32"/>
    </g>
    <circle class="uuid-218d4d90-1567-4714-ae08-d22379a7dd65" cx="1603.52" cy="2715.69" r="53.28"/>
    <path class="uuid-324e8a63-7b2a-40b5-b619-3d0c9a580be8" d="m1603.06,2731.21h0c6.36,0,11.99-4.13,13.91-10.2l14.28-45.99-6.39-50.96h-42.69l18.49,50.96-11.51,37.21c-2.97,9.4,4.05,18.97,13.91,18.97Z"/>
    <circle class="uuid-44745677-9949-4eee-8d97-229ce2dc8085" cx="1603.52" cy="2715.69" r="9.08"/>
    <circle class="uuid-218d4d90-1567-4714-ae08-d22379a7dd65" cx="1154.96" cy="2715.69" r="53.28"/>
    <path class="uuid-324e8a63-7b2a-40b5-b619-3d0c9a580be8" d="m1154.51,2731.21h0c6.36,0,11.99-4.13,13.91-10.2l14.28-45.99-6.39-50.96h-42.69l18.49,50.96-11.51,37.21c-2.97,9.4,4.05,18.97,13.91,18.97Z"/>
    <circle class="uuid-44745677-9949-4eee-8d97-229ce2dc8085" cx="1154.96" cy="2715.69" r="9.08"/>
    <path class="uuid-7202449b-b5a3-44ec-8742-df3d3843a83c" d="m888.64,1807.22c0,4.4,3.57,7.97,7.97,7.97l75.79,4.25c8.29,0,15.64,5.33,18.22,13.21l27.45,83.96,43.27,550.65c-33.14,12.37-55.31,44.25-55.31,79.7,0,46.91,38.17,85.08,85.08,85.08h643.87v-15.93h-643.87c-38.27,0-69.37-31.25-69.14-69.57.18-29.26,19.18-56.82,46.74-66.66l9.31-3.87,51.17-4.29.79-.06,63.4-5.31.79-.06,35.71-3h0l3.2-.27h0l24.47-2.06.79-.06,63.4-5.31.79-.06,63.4-5.31.79-.07,17.14-1.43,3.19-.27h0l43.04-3.61.8-.06,63.39-5.31.8-.06,62.75-5.27h0l.63-.05.8-.07,1.77-.15h.02l61.61-5.16.8-.06,63.39-5.31.8-.07,31.3-2.62c29.74-3.25,32.05-48.25,32.05-91.03v-268.45l-146.78-33.66-598.58-138.95h0s-23.47-71.8-23.47-71.8c-2.58-7.88-9.93-13.21-18.22-13.21l-87.35-4.25c-4.4,0-7.97,3.57-7.97,7.97Zm240.14,656.53l-51.41,4.31-42.97-546.94,68.58,16.18.81.19,64.39,15.19.8.19,64.4,15.19.8.19,64.39,15.19.81.19,64.39,15.2.8.19,64.4,15.19.8.19,64.39,15.19.81.19,64.39,15.19.8.19,64.4,15.2.8.19h0c11.03,3.07,19.18,12.4,20.75,23.75,10.88,78.38,45.34,219.43,61.69,288.01,4.99,20.91-9.33,41.5-30.67,44.11l-34.13,4.18-.8.07-63.39,5.31-.8.06-28.73,2.41h0l-3.2.27-31.45,2.64-.8.06-63.39,5.32-.8.06-63.39,5.31-.79.06-10.17.85h-.02l-3.19.27-50.03,4.19-.79.07-63.4,5.31-.79.06-55.77,4.68-3.22.27-4.41.37-.79.07-63.4,5.31-.79.06Z"/>
    <g>
      <path class="uuid-b98e7953-95e0-45c2-8a7a-6b615de93188" d="m1715.53,2041.43c-1.53,30.07-33.25,52-39.86,41.55-6.61-10.45-13.91-40.9-13.91-40.9l-243.5-127.71c-8.56-5.77-14.42-14.53-16.36-24.46l-30.17-153.71c-1.14-13.39.26-24.19,3.39-32.77,2.94-8.06,7.4-14.15,12.73-18.58,19.39-16.14,50.17-10.3,60.03,2.74,8.58,32.22,15.23,109.65,12.92,167.59l224.86,163.82c18.53,6.02,29.87,22.43,29.87,22.43Z"/>
      <path class="uuid-eacaefde-2c6e-40fd-9f15-bd827bd24c9a" d="m1715.53,2041.43c-1.53,30.07-33.25,52-39.86,41.55-6.61-10.45-13.91-40.9-13.91-40.9l-243.5-127.71c-8.56-5.77-14.42-14.53-16.36-24.46l-30.17-153.71c-1.14-13.39.26-24.19,3.39-32.77,7.92,34.8,30.68,184.23,42.14,193.77,16,13.32,243.04,135.12,246.65,140.69,3.61,5.57,11.13,39.57,14.65,39.93,3.5.35,22.31-4.16,36.97-36.38Z"/>
    </g>
    <g>
      <polygon class="uuid-b98e7953-95e0-45c2-8a7a-6b615de93188" points="829.33 2639.78 829.33 2600.33 778.34 2588.89 771.59 2626.55 766.48 2642.02 819.21 2660 829.33 2639.78"/>
      <path class="uuid-324e8a63-7b2a-40b5-b619-3d0c9a580be8" d="m737.87,2711.08c14.05,28.6,222.04,56.99,194.04,14.77-2.56-1.74-5.11-3.44-7.63-5.11-41.93-27.61-78.29-45.77-94.94-80.97,0,0-36.45,7.62-57.75-13.23-19.08,1.65-27.69,35.86-31.75,66.52-.82,6.26-1.47,12.36-1.96,18.02Z"/>
      <path class="uuid-8585f976-54de-4b08-b516-4889f091fbf9" d="m737.87,2711.08c14.05,28.6,222.04,56.99,194.04,14.77-2.56-1.74-5.11-3.44-7.63-5.11,0,0,0,0,0,0,0,0-14.53,9.46-73.13,3.66-58.61-5.79-111.29-31.36-111.29-31.36h0c-.82,6.27-1.47,12.37-1.96,18.02Z"/>
      <path class="uuid-7202449b-b5a3-44ec-8742-df3d3843a83c" d="m807.44,2266.73c-31.96,88.53-34.44,222.35-35.5,330.37,7.18,4.63,15.02,7.96,23.35,10.3,13.1,3.66,27.44,4.86,42.43,4.77l93.82-334.49c5.54-19.39,5.54-39.96,0-59.35l-64.6-225.68h-183.92c0,126.26,77.04,182.46,124.42,274.08Z"/>
      <path class="uuid-218d4d90-1567-4714-ae08-d22379a7dd65" d="m807.44,2266.73c-31.96,88.53-34.44,222.35-35.5,330.37,7.18,4.63,15.02,7.96,23.35,10.3-.14-2.31-.34-4.67-.6-7.11-8.92-87,41.49-343.87,41.49-343.87l-75.5-123.81,17.1-139.96h-94.78c0,126.26,77.04,182.46,124.42,274.08Z"/>
      <path class="uuid-b98e7953-95e0-45c2-8a7a-6b615de93188" d="m483.42,2641.94s6.48-26.49,5.73-26.98c-.75-.48-39.45-25.54-39.45-25.54l-20.35,28.29-7.75,18.44,58.85,37.06,2.95-31.28Z"/>
      <path class="uuid-324e8a63-7b2a-40b5-b619-3d0c9a580be8" d="m403.6,2703.77c58.49,70.69,187.28,80.98,163.68,42.57-38.29-38.79-73.8-64.36-83.86-104.4,0,0-37.23.38-54.06-24.22-18.49,5.64-20.71,27.82-30.83,55.4-3.82,10.41-2,22.11,5.07,30.66Z"/>
      <path class="uuid-8585f976-54de-4b08-b516-4889f091fbf9" d="m403.6,2703.77c58.49,70.69,187.28,80.98,163.68,42.57,0,0-59.95,13.08-101.63-15.13-41.68-28.2-67.12-58.1-67.12-58.1-3.82,10.41-2,22.11,5.07,30.66Z"/>
      <path class="uuid-7202449b-b5a3-44ec-8742-df3d3843a83c" d="m446.39,2587.29c3.17,4.64,7.45,8.99,12.44,13,12.09,9.73,28.31,17.48,42.69,22.69l208.36-298.09c13.75-18.95,21.88-41.38,23.47-64.74l19.85-292.15h-176.38c-19.97,76.23-9.83,178.36,23.1,300.11-72.05,73.38-120.98,212.3-153.54,319.18Z"/>
      <path class="uuid-218d4d90-1567-4714-ae08-d22379a7dd65" d="m446.39,2587.29c3.17,4.64,7.45,8.99,12.44,13,38.14-118.54,177.82-323.54,177.82-323.54-5.54-87.1,34.76-200.11,44.54-269.94,0,0,8.28-14.18,17.07-38.82h-121.45c-19.97,76.23-9.83,178.36,23.1,300.11-72.05,73.38-120.98,212.3-153.54,319.18Z"/>
      <path class="uuid-b98e7953-95e0-45c2-8a7a-6b615de93188" d="m837.75,1440.54l89.85,56.93h12.07l-.36-24.66,18.98-37.86,32.94,4.21c14.7,1.24,28.48-7.18,33.97-20.73l11.33-28,10.15,3.16,5.07-40.74,31.32-77.35-157.63-29.26-87.68,194.31Z"/>
      <path class="uuid-eacaefde-2c6e-40fd-9f15-bd827bd24c9a" d="m927.6,1497.47h12.07l-.36-24.66,18.98-37.86s-31.55-9.66-44.65-25.18c.68,1.01,17.36,49.64,13.96,87.7Z"/>
      <path class="uuid-44745677-9949-4eee-8d97-229ce2dc8085" d="m572.32,1994.06c37.26,4.52,73.65,9.37,108.88,12.76,73.55,7.06,142.08,7.75,203.07-14.16l8.94-118.68c23.38-162.5,94.74-303.56,46.09-401.17-3.19,30.73-46.04,5.86-96.86-42.67-11.63.18-29.19,1.82-41.48,8.86-41.27,61-172.67,289.75-233.86,525.14-3.85,14.82-8.57,28.24,5.22,29.91Z"/>
      <path class="uuid-3b5f1fe3-4ac2-495b-bbb9-2c877ac87cf5" d="m572.32,1994.06c37.26,4.52,73.65,9.37,108.88,12.76-3.23-32.67-23.34-100.65,11.22-175.48,24.51,8.53,120.84,13.72,173.56,10.22,7.8-1.99,0-52.11,0-52.11,0,0-122.5-47.89-121-51.16,38.65-84.25,84.36-183.76,84.36-183.76.46-43.19-8.63-75.37-24.75-97.87-41.27,61-176.28,272.08-237.48,507.48-3.85,14.82-8.57,28.24,5.22,29.91Z"/>
      <path class="uuid-b98e7953-95e0-45c2-8a7a-6b615de93188" d="m924.33,1783.65l40.41,8.58s12.75,3.33,23.85,1.45c3.36-.57,45.14,6.99,40.41-11.3-.59-.1-1.32-.19-2.14-.26-7.29-.65-22.32-.36-21.49-1.23,12.14-12.86,56.54-11.52,54.29-25.96-1.06-6.29-58.9-16.66-58.9-16.66l-36.02,13.01-18.74,1.7c-9.51,5.07-18.11,10.38-21.62,17.1-2.08,3.95-2.38,8.4-.04,13.55Z"/>
      <path class="uuid-eacaefde-2c6e-40fd-9f15-bd827bd24c9a" d="m924.33,1783.65l40.41,8.58s12.75,3.33,23.85,1.45c3.36-.57,45.14,6.99,40.41-11.3-.59-.1-1.32-.19-2.14-.26-2.33,1.82-16.8,12.27-34.01,6.29-18.8-6.54-64.99-15.12-67.44-17.57-.16-.16-.52-.42-1.05-.74-2.08,3.95-2.38,8.4-.04,13.55Z"/>
      <path class="uuid-8585f976-54de-4b08-b516-4889f091fbf9" d="m945.99,1753l-25.22-10.79-10.01,43.33,11.94,5.61s22.21-20.44,23.3-38.15Z"/>
      <path class="uuid-7202449b-b5a3-44ec-8742-df3d3843a83c" d="m865.97,1841.55s6.63,1.49,5.77-10.59c-.86-12.09-5.77-41.51-5.77-41.51,0,0-17.98,26.76,0,52.11Z"/>
      <path class="uuid-b98e7953-95e0-45c2-8a7a-6b615de93188" d="m858.88,1819.53c.76,3.22,2.13,6.3,4.18,9.24l16-.08c15.47,3.69,35.47,8.99,43.41,8.99,14.81-3.78,37.45-22.14,37.45-22.14,30.72-3.6,15.95-13.41,15.95-13.41-2.39-3.74-59.07-22.07-59.07-22.07,0,0-40.86,7.27-50.82,9.4-6.51,10.94-9.24,21.04-7.1,30.08Z"/>
      <path class="uuid-eacaefde-2c6e-40fd-9f15-bd827bd24c9a" d="m858.88,1819.53c.76,3.22,2.13,6.3,4.18,9.24l16-.08c15.47,3.69,35.47,8.99,43.41,8.99,14.81-3.78,37.45-22.14,37.45-22.14,0,0-22.91,8.8-37.45,7.16-14.53-1.63-46.44-5.87-60.46-3.48-1,.17-2.04.27-3.13.32Z"/>
      <path class="uuid-44745677-9949-4eee-8d97-229ce2dc8085" d="m865.97,1789.44l-211.47-77.96c115.36-69.77,183.37-128.28,195.36-196.29,6.75-35.99,4.57-78.65-48.9-76.2,0,0-277.41,226.7-256.82,300.06,20.59,73.36,321.83,102.49,321.83,102.49-5.15-17.91-5.75-34.12,0-52.11Z"/>
      <path class="uuid-218d4d90-1567-4714-ae08-d22379a7dd65" d="m1069.91,1307.28s66.32-6.9,107.3-61.05c0,0-44.57,20.29-112.62-12.8-68.04-33.09-73.16-65.75-126.58-17.63,0,0-67.99-42.33-74.05,70.58,2.9,57.26-6.81,105.44-6.81,105.44,23.12.46,34.73-19.08,46.9-47.24,3.09-7.15,1.94-18.67,9.58-22.93,41.54-24.06,36.76,56.73,36.76,56.73,0,0,37.01-69.02,46.69-70.61,9.68-1.58,72.82-.5,72.82-.5Z"/>
    </g>
  </g>
  <g>
    <g>
      <polygon class="uuid-e4c58264-c8f3-4f12-9c0a-3b2428873601" points="3575 2190.19 3560.7 2261.33 3536.96 2261.33 3529.14 2308.27 3485.08 2592.56 3357.55 2592.56 3314.15 2308.27 3306.33 2261.33 3282.59 2261.33 3268.29 2190.19 3575 2190.19"/>
      <polygon class="uuid-17e0081b-d48c-4e43-a6f4-42d091e945d4" points="3536.96 2261.33 3529.14 2308.27 3314.15 2308.27 3306.33 2261.33 3536.96 2261.33"/>
    </g>
    <g>
      <path class="uuid-17e0081b-d48c-4e43-a6f4-42d091e945d4" d="m3670.36,1824.3s8.21,24.66-75.57,78.59c-12.95,7.04-21.42,12.27-31.57,20.04l-8.42,16.8.61-10.75c-23.45,18.97-39.36,39.55-50.04,59.82v18.64l-3.73-11.12c-27.94,59.88-12.1,114.92-12.1,114.92,40.32-19.28,72.32-39.82,97.65-60.71l-34.64,1.55,44.33-9.85c24.13-21.43,41.5-43.1,53.87-64.04l-32.59,6.99,36.86-14.56c42.78-79.39,15.32-146.32,15.32-146.32Z"/>
      <path class="uuid-82eae13d-9412-4a32-9f99-890f6413516b" d="m3555.27,1985.46c-21.66,29.03-41.26,61.56-58.25,96.7-28.93,59.82-40.42,107.13-40.53,107.6l3.64.87c.11-.47,11.53-47.46,40.3-106.93,13.59-28.09,32.59-61.99,57.82-95.81,24.01-32.19,88.65-92.66,88.65-92.66,0,0-64.52,53.93-91.62,90.24Z"/>
    </g>
    <g>
      <path class="uuid-324e8a63-7b2a-40b5-b619-3d0c9a580be8" d="m3394.7,1997.31s23.52-176.19-112.73-271.72c-80.59-67.18-75.14-100.5-75.14-100.5,0,0-48.83,227.12,187.87,372.21Z"/>
      <path class="uuid-44745677-9949-4eee-8d97-229ce2dc8085" d="m3617.6,1722.67l-16.39,13.78,21.94-33.96c17.86-73.77,4.81-127.65,4.81-127.65-34.94,56.09-71.16,97.07-100.98,137.83l-5.97,24.68-.93-15.09c-20.22,28.69-36.97,57.85-47.59,92.64l5.85,25.2-9.07-13.7c-7.58,29.53-10.86,63.22-8.37,103.89,53.3-38.81,90.45-80.2,116.17-120.5l-10.25,2.33,19.81-14.43c10.83-20.65,25.09-55.92,30.97-75.01Z"/>
      <path class="uuid-44745677-9949-4eee-8d97-229ce2dc8085" d="m3255.92,1944.22l20.35,6.39-9.45,2.01c35.11,26.08,79.25,49.71,134.73,67.47-44.01-166.56-146.7-182.13-270.28-284.97,0,0,4.92,59.98,49.91,127.83l22.86,9.79-13.26,3.95c16.67,22.66,37.97,45.8,65.15,67.54Z"/>
      <path class="uuid-e4c58264-c8f3-4f12-9c0a-3b2428873601" d="m3307.91,2117l18.97-1.16-10.12,3.96c27,8.06,57.87,13.03,93.08,13.3,0,0-53.47-121.93-177.4-130.53-77.46-11.93-86.93-35.37-86.93-35.37,0,0,16.69,48.01,64.75,92.37,12.07,2.86,23.6,6.07,23.6,6.07l-15.68.96c23.03,19.63,52.5,37.97,89.73,50.4Z"/>
      <path class="uuid-82eae13d-9412-4a32-9f99-890f6413516b" d="m3557.61,1735.21c-1.6,5.07-36.38,114.2-95.2,196.17-31.13,43.39-42.18,111.21-45.96,160.46-4.11,53.48-.78,97.18-.74,97.62l-3.73.29c-.03-.31-1.73-22.59-1.23-54.75-45.45-30.29-83.3-51.3-114.43-67.98-14.42-7.73-102.68-56.96-106.81-59.27,4.22,2.16,94.27,48.3,108.81,56.09,31.13,16.7,67.04,37.37,112.49,67.66.25-12.22.82-25.74,1.91-39.94.13-1.8.29-3.64.44-5.48-5-30.65-11.73-59.86-20.14-87.62-35.23-22.88-140.41-123.26-145.55-128.18,5.43,4.83,121.62,108.23,143.84,122.63-7.99-25.48-17.42-49.7-28.28-72.64-25.2-53.23-97.15-139.97-97.15-139.97,0,0,75.8,85.52,101.07,139.17,21.44,45.52,37.41,96.8,47.58,152.58,5.13-47.03,17.17-104.29,44.84-142.86,58.49-81.5,96.49-189,98.24-193.99Z"/>
    </g>
  </g>
</svg>