<?xml version="1.0" encoding="UTF-8"?>
<svg version="1.1" viewBox="0 0 1600 1272" width="1280" height="1280" xmlns="http://www.w3.org/2000/svg">
<path transform="translate(786,304)" d="m0 0c1.48 0.725 2.96 1.45 4.44 2.18 3.87 1.91 7.72 3.86 11.6 5.82 0.96 0.489 1.92 0.978 2.91 1.48 15.1 7.7 29.9 15.7 44.6 24.1 2.17 1.24 4.35 2.45 6.54 3.66 11.8 6.5 23.3 13.6 34.7 20.8 2.3 1.41 4.6 2.77 6.95 4.1 0.603 0.349 1.21 0.697 1.83 1.06 1.69 0.973 3.39 1.93 5.09 2.88 2.39 1.96 2.39 1.96 2.95 4.47-0.676 3.01-1.59 4.09-3.81 6.2-0.69 0.67-1.38 1.34-2.09 2.03-0.732 0.685-1.46 1.37-2.22 2.08-4.78 4.57-9.38 9.16-13.7 14.2-3.06 3.52-6.29 6.88-9.49 10.3-5.59 5.91-11.1 11.9-16.6 17.9-2.85 3.12-5.71 6.22-8.57 9.32-0.499 0.54-0.998 1.08-1.51 1.64-1.01 1.09-2.02 2.19-3.03 3.28-2.01 2.17-4.01 4.34-6.02 6.52-1 1.08-2 2.17-3 3.25-2.48 2.68-4.95 5.37-7.43 8.05-5.4 5.86-10.8 11.7-16.3 17.5-3.77 4.03-7.52 8.07-11.2 12.2-6.72 7.52-13.7 14.8-20.6 22.1-0.757-0.231-1.51-0.461-2.29-0.699-16.1-4.78-31.4-2.73-46.2 5.18-13.6 8.21-25.6 19.7-35.9 31.7-2.33 2.6-4.91 4.65-7.63 6.82-1.17 1.15-2.33 2.31-3.48 3.48-1.77 1.77-3.57 3.5-5.37 5.23-1.41 1.37-2.81 2.74-4.21 4.11-1.06 1.01-1.06 1.01-2.14 2.04-5.17 5.07-9.78 10.7-10.8 18.1 2.55 3.06 5.11 5.89 9 7 7.62 0.127 10.7-2.92 16-8 3.14-3.09 6.22-6.24 9.29-9.4 1.76-1.8 3.53-3.59 5.29-5.39 2.75-2.8 5.5-5.61 8.24-8.43 2.66-2.74 5.34-5.46 8.03-8.18 0.814-0.848 1.63-1.7 2.47-2.57 6.4-6.43 6.4-6.43 10.6-7.16 3.43 0.142 4.68 0.731 7.08 3.13-0.33 0.99-0.66 1.98-1 3 0.113 1.07 0.227 2.14 0.344 3.24-0.49 5.36-3.06 7.39-6.84 11-0.669 0.662-1.34 1.32-2.03 2-2.14 2.11-4.31 4.19-6.47 6.28-1.43 1.4-2.85 2.8-4.28 4.21-5.87 5.76-11.8 11.4-18 16.8-5.54 4.87-9.6 9.7-11.3 16.9 0.797 3.63 2.68 5.15 5.57 7.38 3.31 1.97 5.22 1.96 8.99 1.18 6.67-3.63 12-8.58 17.3-14 1.11-1.11 1.11-1.11 2.24-2.25 1.55-1.55 3.09-3.11 4.63-4.67 2.36-2.4 4.74-4.78 7.12-7.16 1.51-1.51 3.01-3.03 4.52-4.55 0.71-0.715 1.42-1.43 2.15-2.17 0.652-0.661 1.3-1.32 1.97-2 0.575-0.581 1.15-1.16 1.74-1.76 1.45-1.47 1.45-1.47 2.35-3.49h2v-2c2.02-2.07 3.54-3.59 6-5 3.24 0 5.08 0.478 7.88 2.06 1.84 3.16 1.76 6.43 1.12 9.94-1.81 2.44-3.28 4.1-5.5 6.06-0.758 0.716-0.758 0.716-1.53 1.45-2.2 2.06-4.44 4.04-6.73 6-5.88 5.04-11.4 10.4-16.9 15.9-1.62 1.61-3.24 3.2-4.87 4.8-1.04 1.04-2.09 2.08-3.13 3.12-0.934 0.924-1.87 1.85-2.83 2.8-3.68 4.19-7.1 9.11-7.97 14.7 0.172 3.41 0.172 3.41 2.94 6.06 2.96 2.15 5.57 2.68 9.28 2.69 8.53-2.17 14.3-9.21 20.3-15.2 1.07-1.06 2.13-2.12 3.2-3.19 2.23-2.22 4.46-4.45 6.68-6.69 2.82-2.83 5.65-5.64 8.49-8.45 2.21-2.19 4.41-4.39 6.6-6.59 1.04-1.04 2.08-2.08 3.13-3.11 11.5-11.3 25.2-26.5 25.9-43.3 0.00113-1.09 0.00226-2.18 0.00342-3.31 0.00193-1.79 0.00193-1.79 0.00391-3.62-0.00387-1.24-0.00773-2.47-0.0117-3.75 0.00387-1.25 0.00773-2.5 0.0117-3.78-0.00129-1.19-0.00258-2.38-0.00391-3.6-0.00169-1.63-0.00169-1.63-0.00342-3.3 0.0483-2.61 0.0483-2.61-1.13-4.63 0.405-3.62 1.79-5.01 4.56-7.25 2.96-2.47 5.74-4.99 8.44-7.75 3.22-3.27 6.59-6.29 10.1-9.29 1.89-1.67 3.67-3.41 5.43-5.21 2.39-2.43 4.85-4.71 7.44-6.94 2.81-2.42 5.46-4.92 8.06-7.56 3.06-3.11 6.24-5.99 9.55-8.83 3.32-2.94 6.54-6 9.77-9.05 4.3-4.05 8.61-7.96 13.2-11.6 5.19-4.14 9.79-8.74 14.4-13.5 3.63-3.68 7.33-7.18 11.3-10.5 2.44-2.13 4.68-4.45 6.95-6.76 1.82-1.79 3.71-3.46 5.65-5.12 3.83-3.29 7.35-6.83 10.9-10.4 2.69-2.65 5.51-5.11 8.38-7.55 1.82-1.62 3.45-3.35 5.1-5.14 0.908-0.825 1.82-1.65 2.75-2.5 4.39 0.454 7.32 3.37 10.6 6.06 0.921 0.739 0.921 0.739 1.86 1.49 1.25 1 2.49 2 3.73 3.01 1.63 1.31 3.27 2.59 4.92 3.87 0.902 0.701 1.8 1.4 2.73 2.12 0.802 0.62 1.6 1.24 2.43 1.88 0.559 0.514 1.12 1.03 1.7 1.56v2c0.639 0.268 1.28 0.536 1.94 0.812 2.06 1.19 2.06 1.19 3.06 4.19l4 2c0.33 0.99 0.66 1.98 1 3l4 2c0.33 0.99 0.66 1.98 1 3l2 1c1.62 1.37 1.62 1.37 3 3v3l2 1c0.33 0.99 0.66 1.98 1 3 0.66 0.66 1.32 1.32 2 2 5.97 13.9 9.11 28.1 4.06 42.8-8.54 19-24.3 33.3-40.5 45.9-0.775 0.602-1.55 1.2-2.35 1.82-7.28 5.61-14.7 10.9-22.3 16.2-1.74 1.21-3.47 2.43-5.2 3.65-9.35 6.58-19 12.6-28.7 18.7-1.13 0.708-1.13 0.708-2.29 1.43-9.13 5.71-18.4 11.1-27.8 16.2-5.52 3-10.9 6.12-16.3 9.32-11.2 6.64-22.6 12.8-34.2 18.7-6.56 3.35-13 6.79-19.4 10.5-10.1 5.76-20.8 10.5-31.4 15.3-4.27 1.93-8.51 3.91-12.7 5.9-66.2 30.8-66.2 30.8-96.3 20.7-17.8-7.36-28.1-18.3-35.5-35.9-0.877-2.17-1.73-4.35-2.57-6.53-1.26-3.43-1.26-3.43-2.57-5.83-1.3-2.78-1.29-5.55-1.5-8.57-0.22-2.24-0.22-2.24-1.34-4.07-1.4-3-1.4-5.73-1.57-9.02-0.236-4.45-0.626-8.74-1.44-13.1h-1c-1.07-10.5-2.09-21-2.75-31.5-0.0566-0.782-0.113-1.56-0.172-2.37-0.237-4.22-0.252-7.45 1.92-11.1 2.11-2.04 2.11-2.04 4.75-4.06 3.92-3.07 7.7-6.19 11.4-9.5 10.8-9.56 21.3-17 36.4-16.3 1.6 0.173 3.2 0.362 4.8 0.566 12.5 1.49 21.3 0.052 31.3-7.77 9.45-8.21 16.9-17.8 24-28 1.34-1.93 2.7-3.85 4.06-5.77 7.91-11.2 15.1-22.8 21.3-35.1 1.36-2.5 2.74-4.99 4.12-7.49 5.39-9.74 10.4-19.6 15-29.7 1.69-3.62 3.51-7.18 5.33-10.7 2.28-4.65 4.39-9.38 6.52-14.1 0.483-1.06 0.965-2.13 1.46-3.22 1.54-3.4 3.07-6.81 4.6-10.2 0.516-1.14 1.03-2.28 1.56-3.45 5.79-11.6 5.79-11.6 8.37-24.1-5.46 3.89-10.4 8.13-15.4 12.7-2.61 2.33-5.28 4.53-8 6.72-3.95 3.19-7.73 6.53-11.4 10-4.83 4.51-9.88 8.61-15.1 12.6-4.4 3.41-8.54 7.03-12.6 10.8-2.64 2.37-5.36 4.59-8.12 6.81-3.1 2.5-6.05 5.01-8.81 7.88-2.65 2.74-5.45 5.12-8.44 7.5-4.91 3.95-9.49 8.16-14.1 12.5-5.29 5.02-10.7 9.78-16.4 14.3-2.98 2.45-5.82 5.04-8.64 7.67-4.59 4.27-9.33 8.26-14.2 12.2-3.02 2.51-5.91 5.14-8.78 7.81-4.61 4.29-9.37 8.3-14.3 12.2-2.87 2.38-5.61 4.85-8.35 7.38-4.6 4.24-9.36 8.14-14.4 11.9-1.94-3.27-2.25-5.7-2.24-9.49-0.00302-1.11-0.00604-2.21-0.00916-3.35 0.00713-1.2 0.0143-2.39 0.0216-3.63-4.03e-5 -1.25-8.06e-5 -2.49-1.22e-4 -3.77 0.00281-3.35 0.0149-6.71 0.0327-10.1 0.0104-2.08 0.0175-4.16 0.0236-6.24 0.115-38.4 1.19-76.8 6.79-115 0.402-2.73 0.784-5.47 1.16-8.21 0.258-1.81 0.517-3.63 0.777-5.44 0.115-0.816 0.229-1.63 0.348-2.47 0.647-4.35 1.56-8.32 3.09-12.5 0.344-1.04 0.688-2.08 1.04-3.16 6.31-18.4 14-34.1 32.1-43.5 2.93-1.27 5.85-2.38 8.87-3.39 0.723-0.245 1.45-0.49 2.19-0.742 39.5-10.9 86.8 18 121 34.7zm14 32c-0.33 0.66-0.66 1.32-1 2h2c-0.33-0.66-0.66-1.32-1-2zm-187 43 1 2zm-1 11 1 4zm-1 16 1 4zm193 133 1 4zm1 9v6h1v-6h-1zm-193 7v5h1v-5h-1zm1 13 1 4zm1 11v7h1v-7h-1zm3 24 1 3zm1 6 1 4z" fill="#F95626"/>
<path transform="translate(524,729)" d="m0 0c5.09-0.125 10.2-0.215 15.3-0.275 1.73-0.025 3.45-0.059 5.18-0.103 18.2-0.448 18.2-0.448 26.6 5.38 1.36 0.835 1.36 0.835 2.75 1.69 6.84 7.03 9.58 14.6 9.72 24.3-0.163 8.19-4.02 14.4-8.47 21.1 0.41 0.629 0.82 1.26 1.24 1.91 5.77 9.16 8.06 16.3 5.76 27.1-3.01 8.56-8.1 15.2-16.2 19.4-3.99 1.87-7.73 2.72-12.1 2.94-0.824 0.0421-1.65 0.0841-2.5 0.127-0.869 0.0392-1.74 0.0783-2.63 0.119-1.33 0.0626-1.33 0.0626-2.69 0.126-14.9 0.663-14.9 0.663-20.9 0.311-1-1-1-1-1.12-2.73 9.22e-4 -0.759 0.00184-1.52 0.00279-2.3-0.00137-0.868-0.00275-1.74-0.00417-2.63 0.0036-0.96 0.00719-1.92 0.0109-2.91-1.46e-4 -1-2.92e-4 -2.01-4.43e-4 -3.04 7e-4 -3.34 0.00849-6.68 0.0163-10 0.00186-2.31 0.00329-4.62 0.00429-6.92 0.00383-6.09 0.0137-12.2 0.0247-18.3 0.0102-6.21 0.0148-12.4 0.0198-18.6 0.0107-12.2 0.0278-24.4 0.0488-36.6zm18 18v24c2.35 0.0825 4.7 0.165 7.12 0.25 1.09 0.0546 1.09 0.0546 2.21 0.11 5.07 0.0852 7.81-1.16 11.7-4.36 2.4-3.91 3.37-6.71 2.5-11.2-1.19-3.85-3.06-5.66-6.5-7.81-3.06-1.53-6.27-1.1-9.62-1.06-2.43 0.0206-4.87 0.0412-7.38 0.0625zm0 42v26c9.12 0.858 9.12 0.858 17.7-1.62 3.2-3.29 5.08-5.88 5.51-10.6-0.112-3.51-0.474-5.91-2.7-8.7-6.58-5.89-11.1-5.12-20.5-5.12z" fill="#000002"/>
<path transform="translate(876,729)" d="m0 0h18c-0.0157 2.3-0.0314 4.59-0.0476 6.96-0.0498 7.6-0.0829 15.2-0.108 22.8-0.0156 4.61-0.0368 9.21-0.0709 13.8-0.0327 4.45-0.0506 8.9-0.0583 13.3-0.00553 1.69-0.0163 3.39-0.0326 5.08-0.0219 2.38-0.0248 4.76-0.0234 7.14-0.0108 0.695-0.0216 1.39-0.0327 2.11 0.0315 5.02 1.1 8.37 3.37 12.8 2.71 2.27 4.45 2.92 7.94 3.44 4.03-0.575 6.02-1.74 9.06-4.44 2.78-6.68 2.24-13.6 2.16-20.8-0.00629-1.35-0.0115-2.69-0.0158-4.04-0.0133-3.54-0.0376-7.07-0.0654-10.6-0.0432-5.63-0.0732-11.3-0.096-16.9-0.01-1.94-0.0274-3.89-0.045-5.83-0.0448-8.36 0.38-16.5 1.06-24.9h17c0.0906 10.5 0.164 21 0.207 31.6 0.0208 4.89 0.049 9.77 0.0945 14.7 0.0437 4.72 0.0674 9.44 0.0778 14.2 0.00735 1.79 0.0217 3.59 0.0434 5.38 0.139 11.9-0.0393 22.4-8.65 31.7-7.31 6.31-14.8 8.04-24.3 7.93-7.98-0.902-14.5-4.61-19.6-10.8-4.81-6.53-6.39-13.1-6.28-21.1-4.38e-4 -0.801-8.76e-4 -1.6-0.00133-2.43 0.00207-2.62 0.0253-5.24 0.0489-7.86 0.0056-1.83 0.00987-3.65 0.0129-5.48 0.0114-4.79 0.0408-9.57 0.0741-14.4 0.0308-4.89 0.0444-9.79 0.0595-14.7 0.0321-9.59 0.0848-19.2 0.146-28.8z" fill="#000002"/>
<path transform="translate(626,729)" d="m0 0h49v18h-31v24h31c0.495 8.91 0.495 8.91 1 18h-32v26h32v17c-6.24 0.786-12.3 1.15-18.6 1.13-0.873 9.57e-4 -1.75 0.00191-2.64 0.0029-1.83 6.75e-4 -3.65-0.00113-5.48-0.00534-2.81-0.00541-5.61-6.01e-6 -8.42 0.00635-1.78-6.6e-4 -3.56-0.00194-5.34-0.00391-0.842 0.00202-1.68 0.00405-2.55 0.00613-5.87-0.024-5.87-0.024-6.98-1.14-0.0953-1.34-0.122-2.69-0.12-4.03-0.00137-0.868-0.00275-1.74-0.00417-2.63 0.0036-0.96 0.00719-1.92 0.0109-2.91-1.46e-4 -1-2.92e-4 -2.01-4.43e-4 -3.04 7e-4 -3.34 0.00849-6.68 0.0163-10 0.00186-2.31 0.00329-4.62 0.00429-6.92 0.00383-6.09 0.0137-12.2 0.0247-18.3 0.012-7.3 0.0166-14.6 0.0225-21.9 0.00971-11.1 0.0289-22.2 0.0462-33.3z" fill="#000002"/>
<path transform="translate(722,729)" d="m0 0c5.23-0.125 10.5-0.215 15.7-0.275 1.77-0.025 3.55-0.059 5.32-0.103 11.6-0.278 20.2-0.0891 29.6 7.48 7.44 8.52 8.95 16.3 8.66 27.5-0.778 9.39-4.23 17.8-11.3 24.2-9.85 7.67-18.2 7.18-31 7.18v37c-8.41 0.495-8.41 0.495-17 1-0.788-3.15-1.12-5.15-1.08-8.28 0.00704-0.847 0.0141-1.69 0.0213-2.57 0.0129-0.921 0.0259-1.84 0.0392-2.79 0.00961-0.976 0.0192-1.95 0.0291-2.96 0.033-3.22 0.0733-6.45 0.114-9.67 0.0243-2.24 0.0481-4.47 0.0715-6.71 0.0628-5.89 0.132-11.8 0.202-17.7 0.0707-6.01 0.136-12 0.201-18 0.129-11.8 0.265-23.6 0.404-35.4zm17 19c-0.0877 2.07-0.107 4.15-0.0977 6.22 0.00322 1.26 0.00645 2.52 0.00977 3.82 0.00836 1.34 0.0168 2.68 0.0254 4.02 0.00501 1.34 0.00958 2.69 0.0137 4.03 0.0118 3.3 0.0283 6.6 0.0488 9.9 2.54 0.136 5.08 0.234 7.62 0.312 0.713 0.0419 1.43 0.0838 2.16 0.127 4.05 0.0929 6.47-0.227 9.66-2.85 3.9-3.95 5.01-6.9 5.59-12.5-0.0691-4.62-2.14-8.07-5.09-11.5-3.67-3.08-6.91-2.78-11.5-2.75-0.698-0.00387-1.4-0.00773-2.12-0.0117-3.45-0.303-3.45-0.303-6.32 1.14z" fill="#000002"/>
<path transform="translate(1036,729)" d="m0 0h59v18h-20v85h-18v-85h-20c-0.33-5.94-0.66-11.9-1-18z" fill="#000002"/>
<path transform="translate(1109 893)" d="m0 0c4.69 3.31 7.24 8.06 8.31 13.6 0.107 2.75 0.164 5.48 0.168 8.24 0.00499 1.2 0.00499 1.2 0.0101 2.42 0.00506 1.69 0.00741 3.38 0.00725 5.07 0.00218 2.57 0.0203 5.13 0.0393 7.7 0.00294 1.65 0.00492 3.29 0.00586 4.94 0.00719 0.761 0.0144 1.52 0.0218 2.31-0.0282 6.68-0.948 12.5-5.56 17.6-0.574 0.656-1.15 1.31-1.74 1.99-5 4.36-10.5 4.12-16.8 4.02-5.27-0.538-7.73-2.91-11.3-6.57-4.02-6.1-5.27-11.8-5.18-18.9-4.99e-4 -0.747-9.97e-4 -1.49-0.00151-2.26 0.00232-1.57 0.0119-3.13 0.0286-4.7 0.0236-2.38 0.0205-4.75 0.0139-7.13 0.00558-1.53 0.0127-3.07 0.0215-4.6-9.11e-4 -0.699-0.00182-1.4-0.00276-2.12 0.114-8.05 1.67-14.4 7.31-20.3 7.58-6.46 16.3-5.83 24.7-1.33zm-18.7 12.6c-1.54 3.07-1.18 6.3-1.2 9.68-0.0057 0.762-0.0114 1.52-0.0173 2.31-0.00945 1.61-0.016 3.23-0.0198 4.84-0.00969 2.46-0.0407 4.92-0.0723 7.39-0.00653 1.57-0.0118 3.14-0.0156 4.71-0.0123 0.734-0.0247 1.47-0.0374 2.22 0.0193 4.46 0.604 7.31 3.37 10.9 2.89 1.44 4.8 1.38 8 1 3.59-2.73 4.87-4.2 5.62-8.7 0.0193-1.42 0.0107-2.85-0.0215-4.27 4.03e-5 -0.758 8.06e-5 -1.52 1.22e-4 -2.3-0.00534-1.6-0.0229-3.19-0.0519-4.79-0.0419-2.44-0.0411-4.87-0.0342-7.31-0.0105-1.56-0.0234-3.11-0.0391-4.67-3.02e-4 -1.09-3.02e-4 -1.09-6.1e-4 -2.19-0.103-4.42-0.738-7.27-3.47-10.8-5.24-3.49-7.74-1.92-12 2z" fill="#000002"/>
<path transform="translate(979,729)" d="m0 0h17v103h-18c-0.0226-12.5-0.0409-25.1-0.0518-37.6-0.00522-5.82-0.0123-11.6-0.0236-17.5-0.0109-5.62-0.0168-11.2-0.0194-16.9-0.00185-2.14-0.00545-4.29-0.0109-6.43-0.00726-3-0.00826-6.01-0.0078-9.01-0.0036-0.885-0.00719-1.77-0.0109-2.68 0.00137-0.824 0.00275-1.65 0.00417-2.5-9.22e-4 -0.71-0.00184-1.42-0.00279-2.15 0.151-2.77 0.667-5.51 1.12-8.25z" fill="#000002"/>
<path transform="translate(1025,893)" d="m0 0c4.34 2.83 7.06 6.21 9 11 0.553 3.29 0.562 6.51 0.531 9.84 0.00383 0.928 0.00765 1.86 0.0116 2.81 0.00271 1.95-0.00459 3.91-0.0214 5.86-0.0214 2.98-1.69e-4 5.95 0.0254 8.93-0.00264 1.9-0.00777 3.81-0.0156 5.71 0.0081 0.882 0.0162 1.76 0.0245 2.67-0.102 6.76-1.68 11.1-6.37 16.1-0.864 0.7-0.864 0.7-1.75 1.41-0.579 0.482-1.16 0.964-1.75 1.46-5.04 3.48-11.9 2.88-17.7 2.16-5.87-2.57-9.58-7.11-12-13-0.559-3.36-0.562-6.66-0.531-10.1-0.00383-0.95-0.00765-1.9-0.0116-2.88-0.00271-2 0.00459-4 0.0214-6 0.0214-3.05 1.7e-4 -6.09-0.0254-9.14 0.00264-1.95 0.00777-3.9 0.0156-5.85-0.0081-0.904-0.0162-1.81-0.0245-2.74 0.0957-6.51 1.34-10.9 5.93-15.8 7.53-6.79 15.8-7.09 24.6-2.54zm-15.8 10.6c-4.91 5.33-3.41 13.8-3.43 20.7-0.00972 2.14-0.0408 4.27-0.0723 6.41-0.00653 1.37-0.0118 2.74-0.0156 4.11-0.00935 1.24-0.0187 2.47-0.0283 3.74 0.393 3.8 1.37 6.21 3.36 9.45 2.89 1.44 4.8 1.38 8 1 3.71-2.78 4.88-4.27 5.63-8.9 0.0261-1.51 0.0238-3.03-0.0022-4.54 0.00241-0.805 0.00482-1.61 0.00731-2.44-9.76e-4 -1.7-0.0143-3.39-0.0393-5.09-0.0344-2.59-0.0206-5.18-0.00122-7.77-0.0069-1.65-0.0166-3.3-0.0293-4.95 0.00744-1.16 0.00744-1.16 0.015-2.34-0.077-3.52-0.285-5.57-2.43-8.42-3.92-2.82-6.73-3.36-11-0.918z" fill="#000002"/>
<path transform="translate(1162,891)" d="m0 0c1.81-0.0269 3.62-0.0463 5.44-0.0625 1.01-0.0116 2.02-0.0232 3.06-0.0352 2.5 0.0977 2.5 0.0977 3.5 1.1 0.0987 1.38 0.131 2.76 0.133 4.15 0.00193 1.26 0.00193 1.26 0.00391 2.55-0.00387 0.884-0.00773 1.77-0.0117 2.68 0.00387 0.877 0.00773 1.75 0.0117 2.66-0.00129 0.843-0.00258 1.69-0.00391 2.55-0.00113 0.774-0.00226 1.55-0.00342 2.35-0.129 2.07-0.129 2.07-1.13 5.07 3.92-3.56 6.69-7.7 9.62-12.1 0.49-0.72 0.98-1.44 1.48-2.18 1.98-2.91 3.94-5.83 5.89-8.76 2.6-0.293 2.6-0.293 5.62-0.188 1.5 0.0406 1.5 0.0406 3.04 0.082 0.771 0.0348 1.54 0.0696 2.34 0.105 0 3.82-1.22 5.2-3.32 8.37-0.681 1.05-1.36 2.1-2.06 3.18-1.45 2.21-2.91 4.42-4.38 6.62-1.02 1.58-1.02 1.58-2.06 3.19-0.634 0.96-1.27 1.92-1.92 2.91-1.54 3.32-1.47 4.3-0.263 7.72 1.18 2.73 2.48 5.38 3.82 8.04 0.376 0.763 0.752 1.53 1.14 2.31 1.6 3.25 3.22 6.5 4.84 9.74 1.18 2.37 2.35 4.75 3.52 7.13 0.553 1.1 0.553 1.1 1.12 2.23 2.57 5.21 2.57 5.21 2.57 8.55-1.91 0.162-3.83 0.279-5.75 0.375-1.6 0.104-1.6 0.104-3.23 0.211-3.02-0.586-3.02-0.586-5.08-2.9-2.74-4.84-4.93-9.99-7.19-15.1-0.459-1.02-0.918-2.04-1.39-3.1-1.12-2.51-2.24-5.02-3.36-7.53h-2c-1.34 2.68-1.21 4.88-1.32 7.88-0.0419 1.17-0.0838 2.33-0.127 3.54-0.059 1.83-0.059 1.83-0.119 3.71-0.0432 1.23-0.0864 2.46-0.131 3.73-0.106 3.05-0.208 6.1-0.307 9.14-1.98 0.0269-3.96 0.0463-5.94 0.0625-1.1 0.0116-2.2 0.0232-3.34 0.0352-2.72-0.0977-2.72-0.0977-3.72-1.1-0.0645-2.15-0.0568-4.3-0.0217-6.45 0.00961-0.673 0.0192-1.35 0.0291-2.04 0.0331-2.23 0.0734-4.47 0.114-6.7 0.0243-1.55 0.0481-3.09 0.0715-4.64 0.0629-4.08 0.132-8.15 0.202-12.2 0.0706-4.16 0.135-8.31 0.201-12.5 0.129-8.16 0.265-16.3 0.404-24.5z" fill="#000002"/>
<path transform="translate(809 893)" d="m0 0c4.1 2.68 7.19 6.63 8.8 11.3 0.46 2.8 0.483 5.49 0.477 8.32 0.00387 1.6 0.00387 1.6 0.00781 3.23-0.133 2.58-0.133 2.58-1.13 3.58-1.85 0.0723-3.71 0.0838-5.56 0.0625-1.01-0.00902-2.02-0.018-3.07-0.0273-1.17-0.0174-1.17-0.0174-2.37-0.0352-0.049-0.831-0.098-1.66-0.148-2.52-0.0748-1.09-0.15-2.17-0.227-3.29-0.0696-1.08-0.139-2.16-0.211-3.27-0.226-3.1-0.226-3.1-2.41-5.92-3.17-0.896-5.18-1.29-8.31-0.188-1.84 1.09-1.84 1.09-2.69 3.19-0.501 3.37-0.501 3.37 0 7 3.36 3.99 6.86 6.2 11.5 8.5 6.78 3.36 11.9 7.2 14.5 14.5 0.936 6.79 0.0674 12.4-4 18-3.5 3.67-6.74 5.81-11.9 6.24-6.97 0.154-11.6 0.232-17.1-4.24-5.93-6.83-6.1-12.1-6-21 3.96 0.33 7.92 0.66 12 1 0.103 1.26 0.206 2.52 0.312 3.81 0.328 2.51 0.575 4 1.88 6.19 2.78 1.53 4.7 1.45 7.81 1 2.79-1.98 3.81-3.16 4.56-6.5-0.805-3.58-2.61-4.38-5.56-6.5-1.7-0.945-3.39-1.89-5.11-2.79-7.46-3.93-13.1-7.95-15.9-16.2-0.665-7.46-0.664-13 4-19 7.37-7.74 16.4-8.94 25.8-4.41z" fill="#000002"/>
<path transform="translate(697,891)" d="m0 0c1.81-0.0269 3.62-0.0463 5.44-0.0625 1.01-0.0116 2.02-0.0232 3.06-0.0352 2.5 0.0977 2.5 0.0977 3.5 1.1 0.107 1.64 0.146 3.29 0.158 4.93 0.0103 1.05 0.0205 2.1 0.0311 3.19 0.0073 1.14 0.0146 2.29 0.0221 3.47 0.0281 2.4 0.0567 4.8 0.0859 7.2 0.0413 3.8 0.0782 7.6 0.104 11.4 0.0275 3.65 0.0734 7.31 0.122 11 0.00325 1.14 0.00651 2.28 0.00986 3.46 0.0166 1.06 0.0331 2.12 0.0502 3.2 0.0121 1.4 0.0121 1.4 0.0245 2.82 0.218 2.41 0.218 2.41 1.7 4.17 2.83 2.01 5.35 1.56 8.69 1.2 1.79-1.13 1.79-1.13 3-3 0.472-2.48 0.472-2.48 0.432-5.3 0.0198-1.08 0.0396-2.16 0.06-3.28 0.00639-1.17 0.0128-2.33 0.0194-3.53 0.018-1.19 0.0359-2.39 0.0544-3.62 0.0543-3.82 0.088-7.64 0.121-11.5 0.0332-2.59 0.0676-5.18 0.104-7.76 0.0851-6.35 0.152-12.7 0.209-19h12c0.0991 7.83 0.172 15.7 0.22 23.5 0.0178 2.66 0.0473 5.32 0.082 7.98 0.0487 3.83 0.0713 7.67 0.0889 11.5 0.0206 1.18 0.0413 2.37 0.0626 3.59 0.00188 6.98-0.668 11.5-4.45 17.4-5.96 5.66-10.7 6.46-18.8 6.31-5.2-0.501-8.19-2-11.7-6.03-3.41-4.55-4.63-8.02-4.62-13.8 7.55e-5 -1.12 1.51e-4 -2.24 2.29e-4 -3.4 0.00516-1.21 0.0103-2.42 0.0156-3.66 0.00141-1.24 0.00283-2.48 0.00429-3.75 0.00465-3.29 0.0136-6.58 0.0247-9.87 0.0102-3.36 0.0148-6.72 0.0198-10.1 0.011-6.59 0.0278-13.2 0.0488-19.8z" fill="#000002"/>
<path transform="translate(491,891)" d="m0 0h32v12h-21v15h21v13h-21v17h21c0.879 9.28 0.879 9.28 1 12-1.68 1.68-3.73 1.13-5.97 1.14-0.692-0.00202-1.38-0.00405-2.1-0.00613-0.706 9.57e-4 -1.41 0.00191-2.14 0.0029-1.5 6.82e-4 -2.99-0.00117-4.49-0.00534-2.3-0.00535-4.6-5.46e-5 -6.89 0.00635-1.45-6.61e-4 -2.9-0.00194-4.35-0.00391-1.04 0.00304-1.04 0.00304-2.1 0.00613-4.85-0.024-4.85-0.024-5.97-1.14-0.0984-1.46-0.128-2.93-0.129-4.4-0.00315-0.94-0.0063-1.88-0.00955-2.85 0.00202-1.03 0.00405-2.06 0.00613-3.12-0.00144-1.59-0.00144-1.59-0.0029-3.22-6.83e-4 -2.27 0.00118-4.54 0.00534-6.8 0.00525-3.4 1.09e-4 -6.81-0.00635-10.2-0.00353-12.8 0.335-25.6 1.14-38.4z" fill="#000002"/>
<path transform="translate(941 892)" d="m0 0c4.17 2.47 8.04 6.5 9.68 11.1 0.604 4.01 0.366 8.03 0.312 12.1h-12c-0.0825-1.42-0.165-2.85-0.25-4.31-0.428-3.69-0.428-3.69-2.38-6.81-3.45-1.27-5.86-0.787-9.38 0.125-2.52 3.79-2.32 6.86-2.34 11.2-0.00666 0.808-0.0133 1.62-0.0202 2.45-0.0101 1.71-0.0148 3.41-0.0145 5.12-0.00437 2.61-0.0407 5.22-0.0786 7.83-0.00587 1.66-0.00984 3.32-0.0117 4.98-0.0144 0.779-0.0287 1.56-0.0435 2.36 0.0299 3.55 0.208 5.61 2.34 8.51 2.92 2.03 4.68 2.02 8.16 1.5 2.87-2.2 3.53-4.19 4.19-7.69 0.268-1.42 0.536-2.85 0.812-4.31 3.96 0.33 7.92 0.66 12 1-0.349 9.3-1.72 15-8.62 21.4-5.57 3.66-11.9 3.1-18.4 2.56-5.48-1.5-8.28-5.3-11.1-10-2.21-4.67-2.12-9.34-2.15-14.4-0.0057-0.819-0.0114-1.64-0.0173-2.48-0.00943-1.73-0.016-3.46-0.0198-5.19-0.00968-2.63-0.0407-5.26-0.0723-7.89-0.00653-1.69-0.0118-3.37-0.0156-5.06-0.0123-0.777-0.0247-1.55-0.0374-2.36 0.0268-6.68 1.32-12.2 5.74-17.4 7.32-6.1 14.6-8.05 23.6-4.37z" fill="#000002"/>
<path transform="translate(570 891)" d="m0 0c1.6 1.59e-4 3.21 0.00585 4.81 0.0159 0.842 0.00141 1.68 0.00283 2.55 0.00429 2.7 0.00562 5.4 0.0182 8.1 0.0309 1.83 0.00501 3.65 0.00958 5.48 0.0137 4.49 0.0111 8.97 0.0283 13.5 0.0488v12h-13c0.00786 2.58 0.00786 2.58 0.0159 5.22 0.0161 5.68 0.0276 11.4 0.0359 17 0.00523 3.44 0.0123 6.89 0.0236 10.3 0.0129 3.95 0.0178 7.91 0.0222 11.9 0.00516 1.24 0.0103 2.48 0.0156 3.76 1.13e-4 1.71 1.13e-4 1.71 2.29e-4 3.46 0.00222 1.01 0.00444 2.02 0.00673 3.06-0.12 2.28-0.12 2.28-1.12 3.28-1.85 0.0723-3.71 0.0838-5.56 0.0625-1.52-0.0135-1.52-0.0135-3.07-0.0273-0.782-0.0116-1.56-0.0232-2.37-0.0352-0.938-3.17-1.12-6.02-1.11-9.32 7.55e-5 -1.06 1.51e-4 -2.12 2.29e-4 -3.21 0.00516-1.14 0.0103-2.28 0.0156-3.45 0.00141-1.17 0.00283-2.34 0.00429-3.55 0.0056-3.74 0.0181-7.48 0.0309-11.2 0.00502-2.54 0.00958-5.07 0.0137-7.61 0.011-6.21 0.0283-12.4 0.0488-18.6-4.29-0.33-8.58-0.66-13-1-0.0977-8.5-0.0977-8.5 0-11 1-1 1-1 4.6-1.11z" fill="#000002"/>
<path transform="translate(414,891)" d="m0 0h11v57h21c3.07 3.07 1 8.65 1 13h-34c-0.021-7.79-0.0411-15.6-0.0518-23.4-0.00526-3.63-0.0123-7.26-0.0237-10.9-0.0109-3.5-0.0169-7-0.0194-10.5-0.00272-1.97-0.0105-3.94-0.0184-5.92-4.04e-4 -6.53 0.228-12.8 1.11-19.3z" fill="#000002"/>
<path transform="translate(712,501)" d="m0 0c0 3 0 3-1.65 5.05-7.47 7.39-16.1 15.3-27 16.3-1.29-0.0284-2.58-0.0569-3.9-0.0862-0.701-0.00899-1.4-0.018-2.12-0.0272-2.22-0.0298-4.44-0.0795-6.66-0.133-12.9-0.362-12.9-0.362-25.6 1.94v2c-1.51 1.12-1.51 1.12-3.69 2.44-6.61 4.23-12.4 9.43-18.3 14.6-0.66-0.33-1.32-0.66-2-1 25.3-23.9 25.3-23.9 42-24 2.41 0.181 4.8 0.451 7.21 0.719 12.7 1.28 21.5 0.136 31.7-8.02 2.45-2.17 4.82-4.39 7.14-6.7 0.587-0.584 1.17-1.17 1.78-1.77 0.605-0.609 0.605-0.609 1.22-1.23z" fill="#000002"/>
<path transform="translate(722,553)" d="m0 0c0 3 0 3-1.29 4.54-0.587 0.543-1.17 1.09-1.78 1.64-2.62 2.5-5.04 5.04-7.38 7.81-2.95 3.43-6.14 6.3-9.58 9.21-2.71 2.45-5.03 5.17-7.4 7.95-11.1 13-11.1 13-18.6 13.6-4.81-0.343-7.74-3.39-10.9-6.75 0.33-0.99 0.66-1.98 1-3 0.495 0.804 0.99 1.61 1.5 2.44 2.9 2.98 4.34 3.3 8.3 3.81 7.41-0.843 12.2-6.84 17.1-11.9 0.835-0.839 1.67-1.68 2.53-2.54 2.66-2.67 5.3-5.36 7.95-8.04 1.8-1.82 3.61-3.63 5.41-5.45 4.41-4.45 8.82-8.9 13.2-13.4z" fill="#000002"/>
<path transform="translate(730,598)" d="m0 0c0 3 0 3-1.56 4.93-0.716 0.713-1.43 1.43-2.17 2.16-0.785 0.784-1.57 1.57-2.38 2.38-0.831 0.815-1.66 1.63-2.52 2.47-0.808 0.811-1.62 1.62-2.45 2.46-10.1 10-10.1 10-15.1 11.1-7.15-0.319-7.15-0.319-9.8-2.46-1.25-2.62-1.25-2.62-2-5 1.27 0.99 1.27 0.99 2.56 2 4.09 2.38 5.78 2.79 10.4 2 6.85-3.65 12.2-8.84 17.6-14.4 0.723-0.736 1.45-1.47 2.19-2.23 1.76-1.79 3.51-3.59 5.25-5.39z" fill="#000002"/>
<path transform="translate(717,642)" d="m0 0h2c0.536 0.66 1.07 1.32 1.62 2 2.83 2.39 4.69 2.45 8.34 2.27 2.84-0.38 5.39-1.21 8.04-2.27-1 3-1 3-2.75 4.16-4.03 1.51-8.02 1.53-12.2 0.84-3.12-2.38-3.12-2.38-5-5v-2z" fill="#000002"/>
<path transform="translate(735 545)" d="m0 0c3.19 1.12 3.19 1.12 4.62 3.19 0.278 0.959 0.278 0.959 0.562 1.94-0.516-0.351-1.03-0.701-1.56-1.06-3.47-1.33-5.87-0.781-9.44 0.0625-1.92 1.42-1.92 1.42-3 3-0.66-0.33-1.32-0.66-2-1 5.68-5.96 5.68-5.96 10.8-6.12z" fill="#000002"/>
<path transform="translate(760 571)" d="m0 0c2.76 0.98 4.03 1.73 5.81 4-0.33 0.66-0.66 1.32-1 2-0.835-0.773-0.835-0.773-1.69-1.56-2.2-1.68-2.2-1.68-4.75-1.31-2.81 0.958-5.09 2.25-7.56 3.88 0-2 0-2 2.62-4.69 2.55-2.04 3.13-2.31 6.56-2.31z" fill="#000002"/>
</svg>
